<svg width="52" height="52" viewBox="0 0 52 52" fill="none" xmlns="http://www.w3.org/2000/svg">
<path d="M26 0C11.648 0 0 11.648 0 26C0 40.352 11.648 52 26 52C40.352 52 52 40.352 52 26C52 11.648 40.352 0 26 0ZM13.91 42.9C17.316 40.456 21.476 39 26 39C30.524 39 34.684 40.456 38.09 42.9C34.684 45.344 30.524 46.8 26 46.8C21.476 46.8 17.316 45.344 13.91 42.9ZM41.964 39.312C37.4098 35.7389 31.7886 33.7969 26 33.7969C20.2114 33.7969 14.5902 35.7389 10.036 39.312C6.90799 35.5818 5.19558 30.8681 5.2 26C5.2 14.508 14.508 5.2 26 5.2C37.492 5.2 46.8 14.508 46.8 26C46.8 31.07 44.98 35.698 41.964 39.312Z" fill="#003A6D"/>
<path d="M26.0004 10.3999C20.9824 10.3999 16.9004 14.4819 16.9004 19.4999C16.9004 24.5179 20.9824 28.5999 26.0004 28.5999C31.0184 28.5999 35.1004 24.5179 35.1004 19.4999C35.1004 14.4819 31.0184 10.3999 26.0004 10.3999ZM26.0004 23.3999C23.8424 23.3999 22.1004 21.6579 22.1004 19.4999C22.1004 17.3419 23.8424 15.5999 26.0004 15.5999C28.1584 15.5999 29.9004 17.3419 29.9004 19.4999C29.9004 21.6579 28.1584 23.3999 26.0004 23.3999Z" fill="#003A6D"/>
</svg>
