<svg width="49" height="49" viewBox="0 0 49 49" fill="none" xmlns="http://www.w3.org/2000/svg">
<path fill-rule="evenodd" clip-rule="evenodd" d="M38.7921 9.67956V16.3333C39.5965 16.3333 40.393 16.4918 41.1361 16.7996C41.8792 17.1074 42.5544 17.5586 43.1232 18.1273C43.6919 18.6961 44.1431 19.3713 44.4509 20.1144C44.7587 20.8575 44.9171 21.654 44.9171 22.4583C44.9171 23.2627 44.7587 24.0592 44.4509 24.8023C44.1431 25.5454 43.6919 26.2206 43.1232 26.7894C42.5544 27.3581 41.8792 27.8093 41.1361 28.1171C40.393 28.4249 39.5965 28.5833 38.7921 28.5833V34.7083C38.7921 38.073 34.9518 39.9942 32.2588 37.975L28.053 34.8186C25.8048 33.1329 23.1872 32.0075 20.4171 31.5356V37.3421C20.4174 38.6768 19.9351 39.9666 19.0592 40.9738C18.1834 41.9809 16.973 42.6375 15.6511 42.8225C14.3293 43.0075 12.9851 42.7085 11.8664 41.9805C10.7477 41.2525 9.92986 40.1446 9.56365 38.8611L6.35823 27.6401C5.20472 26.2779 4.45404 24.6209 4.19056 22.8555C3.92709 21.09 4.16126 19.2861 4.86676 17.6464C5.57226 16.0068 6.72112 14.5964 8.18419 13.5738C9.64727 12.5513 11.3666 11.9571 13.1488 11.858L19.3106 11.515C22.3253 11.3472 25.2572 10.4663 27.8651 8.94456L32.6508 6.15156C35.3744 4.56518 38.7921 6.52722 38.7921 9.67956ZM11.5032 30.7843L13.4898 37.7402C13.5854 38.0769 13.7996 38.3677 14.0928 38.5588C14.3861 38.7499 14.7386 38.8284 15.0852 38.7799C15.4318 38.7313 15.7492 38.559 15.9787 38.2948C16.2082 38.0305 16.3343 37.6921 16.3338 37.3421V31.1967L13.1488 31.0191C12.5945 30.9883 12.044 30.9098 11.5032 30.7843ZM34.7088 9.67956L29.9211 12.4746C27.0125 14.1701 23.7692 15.211 20.4171 15.5248V27.4053C24.0656 27.9076 27.5385 29.3306 30.503 31.5519L34.7088 34.7083V9.67956ZM16.3338 15.7698L13.3734 15.9332C11.9962 16.0092 10.6975 16.5988 9.73375 17.5855C8.76998 18.5723 8.21115 19.8845 8.16756 21.2631C8.12397 22.6417 8.5988 23.9866 9.49831 25.0322C10.3978 26.0779 11.6567 26.7483 13.0263 26.9112L13.3734 26.9419L16.3338 27.1052V15.7698ZM38.7921 20.4167V24.5C39.3125 24.4994 39.813 24.3002 40.1914 23.943C40.5698 23.5857 40.7975 23.0975 40.828 22.578C40.8585 22.0585 40.6895 21.547 40.3555 21.1479C40.0215 20.7489 39.5478 20.4924 39.031 20.431L38.7921 20.4167Z" fill="#003A6D"/>
</svg>
