<svg width="69" height="63" viewBox="0 0 69 63" fill="none" xmlns="http://www.w3.org/2000/svg">
<path d="M59.5909 37.8V47.25H69V53.55H59.5909V63H53.3182V53.55H43.9091V47.25H53.3182V37.8H59.5909ZM59.616 0C61.3347 0 62.7273 1.40175 62.7273 3.12795V31.5H56.4545V6.3H6.27273V50.3969L37.6364 18.9L47.0455 28.35V37.2614L37.6364 27.8114L15.1392 50.4H37.6364V56.7H3.11127C2.28582 56.6992 1.49447 56.3692 0.911081 55.7827C0.327694 55.1962 -4.18564e-07 54.4011 0 53.5721V3.12795C0.00573968 2.30069 0.335278 1.5089 0.917427 0.923636C1.49958 0.338366 2.2876 0.00659815 3.11127 0H59.616ZM18.8182 12.6C20.4818 12.6 22.0773 13.2637 23.2537 14.4452C24.43 15.6267 25.0909 17.2291 25.0909 18.9C25.0909 20.5709 24.43 22.1733 23.2537 23.3548C22.0773 24.5363 20.4818 25.2 18.8182 25.2C17.1546 25.2 15.5591 24.5363 14.3827 23.3548C13.2063 22.1733 12.5455 20.5709 12.5455 18.9C12.5455 17.2291 13.2063 15.6267 14.3827 14.4452C15.5591 13.2637 17.1546 12.6 18.8182 12.6Z" fill="#CC0001"/>
</svg>
