<svg width="35" height="35" viewBox="0 0 35 35" fill="none" xmlns="http://www.w3.org/2000/svg">
<path d="M31.1111 0H3.88889C1.75 0 0 1.75 0 3.88889V31.1111C0 33.25 1.75 35 3.88889 35H31.1111C33.25 35 35 33.25 35 31.1111V3.88889C35 1.75 33.25 0 31.1111 0ZM31.1111 31.1111H3.88889V3.88889H31.1111V31.1111Z" fill="#003A6D"/>
<path d="M7.77783 17.5001H11.6667V27.2223H7.77783V17.5001ZM23.3334 7.77783H27.2223V27.2223H23.3334V7.77783ZM15.5556 21.3889H19.4445V27.2223H15.5556V21.3889ZM15.5556 13.6112H19.4445V17.5001H15.5556V13.6112Z" fill="#003A6D"/>
</svg>
