<svg width="29" height="44" viewBox="0 0 29 44" fill="none" xmlns="http://www.w3.org/2000/svg">
<path d="M5.4375 0C2.45594 0 0 2.48417 0 5.5V38.5C0 41.5158 2.45594 44 5.4375 44H23.5625C26.5441 44 29 41.5158 29 38.5V5.5C29 2.48417 26.5441 0 23.5625 0H5.4375ZM5.4375 3.66667H23.5625C24.5684 3.66667 25.375 4.4825 25.375 5.5V38.5C25.375 39.5175 24.5684 40.3333 23.5625 40.3333H5.4375C4.43156 40.3333 3.625 39.5175 3.625 38.5V5.5C3.625 4.4825 4.43156 3.66667 5.4375 3.66667ZM14.5 34.8333C13.5031 34.8333 12.6875 35.6583 12.6875 36.6667C12.6875 37.675 13.5031 38.5 14.5 38.5C15.4969 38.5 16.3125 37.675 16.3125 36.6667C16.3125 35.6583 15.4969 34.8333 14.5 34.8333Z" fill="#003A6D"/>
</svg>
