<svg width="36" height="42" viewBox="0 0 36 42" fill="none" xmlns="http://www.w3.org/2000/svg">
<path d="M30.0988 22.1947C30.0797 18.7534 31.6674 16.1561 34.881 14.2432C33.0829 11.7209 30.3666 10.3331 26.78 10.0612C23.3847 9.79866 19.6738 12.0022 18.3156 12.0022C16.881 12.0022 13.5909 10.155 11.0085 10.155C5.67163 10.2394 0 14.3276 0 22.6447C0 25.1014 0.459086 27.6394 1.37726 30.2586C2.60149 33.6999 7.02019 42.1389 11.6302 41.9983C14.0404 41.942 15.7428 40.3198 18.8799 40.3198C21.9214 40.3198 23.4995 41.9983 26.187 41.9983C30.8353 41.9326 34.8332 34.2625 36 30.8119C29.7641 27.9332 30.0988 22.3728 30.0988 22.1947ZM24.6854 6.79811C27.2965 3.76006 27.0574 0.993931 26.9809 0C24.6759 0.131274 22.0074 1.53778 20.4867 3.27247C18.813 5.12906 17.8278 7.42635 18.0383 10.0143C20.5345 10.2019 22.8108 8.94538 24.6854 6.79811Z" fill="black"/>
</svg>
