<svg width="45" height="25" viewBox="0 0 45 25" fill="none" xmlns="http://www.w3.org/2000/svg">
<path d="M39.9825 0.845942C40.5337 0.304295 41.2813 0 42.0608 0C42.8403 0 43.5879 0.304295 44.1391 0.845942C44.6903 1.38759 45 2.12222 45 2.88822C45 3.65423 44.6903 4.38886 44.1391 4.9305L24.5783 24.152C24.3057 24.4208 23.9818 24.634 23.6252 24.7796C23.2685 24.9251 22.8862 25 22.5 25C22.1138 25 21.7315 24.9251 21.3748 24.7796C21.0182 24.634 20.6943 24.4208 20.4217 24.152L0.860874 4.9305C0.309665 4.38886 -1.16158e-08 3.65423 0 2.88822C1.16159e-08 2.12222 0.309666 1.38759 0.860874 0.845942C1.41208 0.304295 2.15968 0 2.93921 0C3.71873 0 4.46633 0.304295 5.01754 0.845942L22.4976 18.0227L39.9825 0.845942Z" fill="#FF0000"/>
</svg>
