<svg width="34" height="48" viewBox="0 0 34 48" fill="none" xmlns="http://www.w3.org/2000/svg">
<path d="M22.6643 6.60505C22.6643 5.29869 22.3321 4.02168 21.7097 2.93548C21.0873 1.84929 20.2027 1.0027 19.1676 0.502782C18.1326 0.00286184 16.9937 -0.12794 15.8949 0.126917C14.7962 0.381774 13.7869 1.01084 12.9947 1.93458C12.2025 2.85831 11.6631 4.03522 11.4445 5.31647C11.226 6.59772 11.3381 7.92578 11.7668 9.13269C12.1956 10.3396 12.9216 11.3712 13.8531 12.0969C14.7846 12.8227 15.8797 13.2101 17 13.2101C18.5023 13.2101 19.943 12.5142 21.0053 11.2755C22.0675 10.0368 22.6643 8.35682 22.6643 6.60505ZM17 9.90757C16.4399 9.90757 15.8923 9.71388 15.4265 9.351C14.9608 8.98811 14.5978 8.47233 14.3834 7.86887C14.1691 7.26541 14.113 6.60139 14.2223 5.96076C14.3315 5.32013 14.6013 4.73168 14.9974 4.26981C15.3934 3.80795 15.8981 3.49341 16.4475 3.36598C16.9969 3.23855 17.5663 3.30396 18.0838 3.55392C18.6013 3.80388 19.0437 4.22717 19.3549 4.77027C19.6661 5.31336 19.8322 5.95187 19.8322 6.60505C19.8322 7.48093 19.5338 8.32094 19.0026 8.94029C18.4715 9.55963 17.7511 9.90757 17 9.90757ZM32.9911 26.0177L24.9955 15.4455C24.4639 14.7428 23.8102 14.1801 23.0777 13.7947C22.3453 13.4093 21.5509 13.21 20.7473 13.2101H13.2527C12.4491 13.21 11.6547 13.4093 10.9223 13.7947C10.1898 14.1801 9.53607 14.7428 9.00446 15.4455L1.00891 26.0177C0.359594 26.7921 -0.00274365 27.833 1.56447e-05 28.916C0.00277494 29.999 0.37041 31.0374 1.02366 31.8073C1.67691 32.5771 2.56344 33.0168 3.49213 33.0315C4.42082 33.0462 5.31727 32.6348 5.9882 31.8859L8.87347 29.1861L5.94572 42.165C5.55795 43.1627 5.52594 44.2991 5.85673 45.3243C6.18753 46.3495 6.85403 47.1795 7.70963 47.6317C8.56522 48.0839 9.53981 48.1212 10.419 47.7354C11.2982 47.3497 12.01 46.5725 12.3977 45.5748L17 36.3133L21.6023 45.5748C22.0074 46.539 22.7187 47.2812 23.5853 47.644C24.4519 48.0068 25.4057 47.9616 26.2442 47.5179C27.0827 47.0743 27.74 46.2672 28.0766 45.2678C28.4132 44.2684 28.4027 43.1554 28.0472 42.165L25.1265 29.1861L28.0118 31.8859C28.6827 32.6348 29.5792 33.0462 30.5079 33.0315C31.4366 33.0168 32.3231 32.5771 32.9763 31.8073C33.6296 31.0374 33.9972 29.999 34 28.916C34.0027 27.833 33.6404 26.7921 32.9911 26.0177ZM30.9537 29.4792C30.8879 29.5559 30.8099 29.6168 30.7239 29.6584C30.638 29.6999 30.5458 29.7213 30.4528 29.7213C30.3597 29.7213 30.2676 29.6999 30.1816 29.6584C30.0957 29.6168 30.0176 29.5559 29.9518 29.4792C29.9147 29.4379 29.8775 29.3966 29.8368 29.3594L23.5494 23.4809C23.3173 23.265 23.0329 23.1395 22.7364 23.1222C22.4399 23.105 22.1462 23.1969 21.8969 23.3849C21.6476 23.573 21.4553 23.8476 21.3471 24.17C21.239 24.4925 21.2205 24.8464 21.2943 25.1817L25.3443 43.1392C25.3651 43.235 25.3936 43.3283 25.4292 43.4179C25.4701 43.5164 25.4937 43.6233 25.4988 43.7326C25.5039 43.8419 25.4903 43.9512 25.4589 44.0543C25.4274 44.1574 25.3787 44.2521 25.3155 44.3331C25.2524 44.414 25.1761 44.4795 25.091 44.5257C25.006 44.5719 24.9139 44.598 24.8201 44.6024C24.7264 44.6067 24.6328 44.5893 24.5449 44.5512C24.4569 44.513 24.3764 44.4548 24.3079 44.38C24.2394 44.3053 24.1843 44.2153 24.1459 44.1155C24.1286 44.0709 24.1091 44.0275 24.0875 43.9855L18.2249 32.1996C18.1004 31.9494 17.9218 31.7417 17.7068 31.5973C17.4918 31.4529 17.2481 31.3769 17 31.3769C16.7519 31.3769 16.5082 31.4529 16.2932 31.5973C16.0782 31.7417 15.8996 31.9494 15.7751 32.1996L9.9196 43.9752C9.89803 44.0172 9.87852 44.0606 9.86118 44.1052C9.82186 44.2036 9.76629 44.292 9.69765 44.3653C9.629 44.4386 9.54863 44.4954 9.46114 44.5325C9.32947 44.5887 9.18643 44.5982 9.05017 44.5595C8.9139 44.5209 8.79054 44.4359 8.69574 44.3154C8.60093 44.1949 8.53895 44.0443 8.51765 43.8827C8.49635 43.721 8.51669 43.5557 8.57609 43.4075C8.61176 43.3179 8.6402 43.2246 8.66106 43.1289L12.7057 25.1817C12.7795 24.8464 12.761 24.4925 12.6529 24.17C12.5447 23.8476 12.3524 23.573 12.1031 23.3849C11.8538 23.1969 11.5601 23.105 11.2636 23.1222C10.9671 23.1395 10.6827 23.265 10.4506 23.4809L4.16323 29.3594C4.12252 29.3966 4.08534 29.4379 4.04817 29.4792C3.98314 29.5591 3.90504 29.6231 3.81847 29.6673C3.7319 29.7115 3.63862 29.735 3.54412 29.7366C3.44962 29.7381 3.35582 29.7175 3.26825 29.6761C3.18068 29.6346 3.1011 29.5732 3.03422 29.4953C2.96733 29.4175 2.91449 29.3248 2.87881 29.2227C2.84312 29.1207 2.82532 29.0114 2.82644 28.9012C2.82757 28.791 2.8476 28.6822 2.88536 28.5811C2.92312 28.4801 2.97784 28.3889 3.04629 28.3129C3.06754 28.2882 3.08701 28.2634 3.10648 28.2366L11.1286 17.6293C11.3945 17.2781 11.7214 16.997 12.0876 16.8044C12.4538 16.6119 12.851 16.5124 13.2527 16.5126H20.7473C21.149 16.5124 21.5462 16.6119 21.9124 16.8044C22.2786 16.997 22.6055 17.2781 22.8714 17.6293L30.8935 28.2366C30.913 28.2634 30.9325 28.2882 30.9537 28.3129C31.0861 28.4677 31.1605 28.6774 31.1605 28.896C31.1605 29.1147 31.0861 29.3244 30.9537 29.4792Z" fill="#003A6D"/>
</svg>
