<svg width="63" height="51" viewBox="0 0 63 51" fill="none" xmlns="http://www.w3.org/2000/svg">
<path d="M20.475 51C19.1625 51 18.0464 50.5346 17.1266 49.6039C16.2068 48.6731 15.7479 47.5447 15.75 46.2187V9.56251H4.72501C3.41251 9.56251 2.29636 9.09713 1.37656 8.16638C0.456757 7.23563 -0.00209282 6.10726 7.17539e-06 4.78126C7.17539e-06 3.45313 0.459907 2.32369 1.37971 1.39294C2.29951 0.462194 3.41461 -0.00211774 4.72501 7.26083e-06H36.225C37.5375 7.26083e-06 38.6536 0.465383 39.5734 1.39613C40.4932 2.32688 40.9521 3.45526 40.95 4.78126C40.95 6.10938 40.4901 7.23882 39.5703 8.16957C38.6505 9.10032 37.5354 9.56463 36.225 9.56251H25.2V46.2187C25.2 47.5469 24.7401 48.6763 23.8203 49.6071C22.9005 50.5378 21.7854 51.0021 20.475 51ZM48.825 51C47.5125 51 46.3963 50.5346 45.4765 49.6039C44.5567 48.6731 44.0979 47.5447 44.1 46.2187V25.5H39.375C38.0625 25.5 36.9464 25.0346 36.0266 24.1039C35.1068 23.1731 34.6479 22.0448 34.65 20.7188C34.65 19.3906 35.1099 18.2612 36.0297 17.3304C36.9495 16.3997 38.0646 15.9354 39.375 15.9375H58.275C59.5875 15.9375 60.7036 16.4029 61.6234 17.3336C62.5432 18.2644 63.0021 19.3928 63 20.7188C63 22.0469 62.5401 23.1763 61.6203 24.1071C60.7005 25.0378 59.5854 25.5021 58.275 25.5H53.55V46.2187C53.55 47.5469 53.0901 48.6763 52.1703 49.6071C51.2505 50.5378 50.1354 51.0021 48.825 51Z" fill="#CC0001"/>
</svg>
