<svg width="20" height="15" viewBox="0 0 20 15" fill="none" xmlns="http://www.w3.org/2000/svg">
<path d="M3.63608 13.728C2.80034 12.8923 2.13739 11.9001 1.68509 10.8082C1.2328 9.71624 1 8.54591 1 7.364C1 6.18209 1.2328 5.01176 1.68509 3.91982C2.13739 2.82789 2.80034 1.83573 3.63608 1M16.3641 1C17.1998 1.83573 17.8628 2.82789 18.3151 3.91982C18.7674 5.01176 19.0002 6.18209 19.0002 7.364C19.0002 8.54591 18.7674 9.71624 18.3151 10.8082C17.8628 11.9001 17.1998 12.8923 16.3641 13.728M6.46408 10.899C5.52672 9.96136 5.00015 8.68982 5.00015 7.364C5.00015 6.03818 5.52672 4.76664 6.46408 3.829M13.5361 3.829C14.4734 4.76664 15 6.03818 15 7.364C15 8.68982 14.4734 9.96136 13.5361 10.899M11.0001 7.364C11.0001 7.62922 10.8947 7.88357 10.7072 8.07111C10.5196 8.25864 10.2653 8.364 10.0001 8.364C9.73486 8.364 9.48051 8.25864 9.29297 8.07111C9.10544 7.88357 9.00008 7.62922 9.00008 7.364C9.00008 7.09878 9.10544 6.84443 9.29297 6.65689C9.48051 6.46936 9.73486 6.364 10.0001 6.364C10.2653 6.364 10.5196 6.46936 10.7072 6.65689C10.8947 6.84443 11.0001 7.09878 11.0001 7.364Z" stroke="#CC0001" stroke-width="2" stroke-linecap="round" stroke-linejoin="round"/>
</svg>
