<svg width="30" height="30" viewBox="0 0 30 30" fill="none" xmlns="http://www.w3.org/2000/svg">
<path d="M6.66663 13.5H9.99996V16.5H6.66663V13.5ZM6.66663 19.5H9.99996V22.5H6.66663V19.5ZM13.3333 13.5H16.6666V16.5H13.3333V13.5ZM13.3333 19.5H16.6666V22.5H13.3333V19.5ZM20 13.5H23.3333V16.5H20V13.5ZM20 19.5H23.3333V22.5H20V19.5Z" fill="#3B5998"/>
<path d="M3.33333 30H26.6667C28.505 30 30 28.6545 30 27V6C30 4.3455 28.505 3 26.6667 3H23.3333V0H20V3H10V0H6.66667V3H3.33333C1.495 3 0 4.3455 0 6V27C0 28.6545 1.495 30 3.33333 30ZM26.6667 9L26.6683 27H3.33333V9H26.6667Z" fill="#3B5998"/>
</svg>
