<svg width="52" height="48" viewBox="0 0 52 48" fill="none" xmlns="http://www.w3.org/2000/svg">
<path d="M48.4002 6.40058H42.0003V11.2006C42.0003 11.6628 41.9092 12.1205 41.7323 12.5476C41.5554 12.9747 41.2961 13.3627 40.9693 13.6896C40.6424 14.0164 40.2544 14.2757 39.8273 14.4526C39.4002 14.6295 38.9425 14.7205 38.4803 14.7205C38.018 14.7205 37.5603 14.6295 37.1332 14.4526C36.7062 14.2757 36.3181 14.0164 35.9913 13.6896C35.6644 13.3627 35.4051 12.9747 35.2282 12.5476C35.0513 12.1205 34.9603 11.6628 34.9603 11.2006V6.40058H16.3204V11.2006C16.3204 12.1341 15.9495 13.0294 15.2894 13.6896C14.6292 14.3497 13.7339 14.7205 12.8004 14.7205C11.8668 14.7205 10.9715 14.3497 10.3114 13.6896C9.65123 13.0294 9.28038 12.1341 9.28038 11.2006V6.40058H2.8804C2.49964 6.39624 2.12188 6.46831 1.76945 6.61251C1.41703 6.75672 1.0971 6.97013 0.82859 7.24013C0.56008 7.51013 0.348442 7.83124 0.206192 8.18446C0.063942 8.53768 -0.00603111 8.91583 0.00041128 9.29656V45.1044C-0.00594552 45.4784 0.0614416 45.8501 0.198724 46.198C0.336006 46.546 0.540493 46.8635 0.800507 47.1324C1.06052 47.4014 1.37097 47.6164 1.71411 47.7654C2.05726 47.9143 2.42638 47.9942 2.8004 48.0004H48.4002C48.7742 47.9942 49.1434 47.9143 49.4865 47.7654C49.8297 47.6164 50.1401 47.4014 50.4001 47.1324C50.6601 46.8635 50.8646 46.546 51.0019 46.198C51.1392 45.8501 51.2066 45.4784 51.2002 45.1044V9.29656C51.2066 8.92255 51.1392 8.55094 51.0019 8.20297C50.8646 7.855 50.6601 7.53748 50.4001 7.26856C50.1401 6.99963 49.8297 6.78456 49.4865 6.63563C49.1434 6.4867 48.7742 6.40683 48.4002 6.40058ZM12.8004 38.4005H9.60038V35.2005H12.8004V38.4005ZM12.8004 30.4005H9.60038V27.2005H12.8004V30.4005ZM12.8004 22.4005H9.60038V19.2005H12.8004V22.4005ZM22.4003 38.4005H19.2003V35.2005H22.4003V38.4005ZM22.4003 30.4005H19.2003V27.2005H22.4003V30.4005ZM22.4003 22.4005H19.2003V19.2005H22.4003V22.4005ZM32.0003 38.4005H28.8003V35.2005H32.0003V38.4005ZM32.0003 30.4005H28.8003V27.2005H32.0003V30.4005ZM32.0003 22.4005H28.8003V19.2005H32.0003V22.4005ZM41.6003 38.4005H38.4003V35.2005H41.6003V38.4005ZM41.6003 30.4005H38.4003V27.2005H41.6003V30.4005ZM41.6003 22.4005H38.4003V19.2005H41.6003V22.4005Z" fill="#CC0001"/>
<path d="M12.8002 12.8C13.2245 12.8 13.6315 12.6314 13.9316 12.3313C14.2316 12.0313 14.4002 11.6243 14.4002 11.2V1.59999C14.4002 1.17565 14.2316 0.768684 13.9316 0.468627C13.6315 0.16857 13.2245 0 12.8002 0C12.3758 0 11.9689 0.16857 11.6688 0.468627C11.3688 0.768684 11.2002 1.17565 11.2002 1.59999V11.2C11.2002 11.6243 11.3688 12.0313 11.6688 12.3313C11.9689 12.6314 12.3758 12.8 12.8002 12.8Z" fill="#CC0001"/>
<path d="M38.3998 12.8C38.8241 12.8 39.2311 12.6314 39.5312 12.3313C39.8312 12.0313 39.9998 11.6243 39.9998 11.2V1.59999C39.9998 1.17565 39.8312 0.768684 39.5312 0.468627C39.2311 0.16857 38.8241 0 38.3998 0C37.9755 0 37.5685 0.16857 37.2684 0.468627C36.9684 0.768684 36.7998 1.17565 36.7998 1.59999V11.2C36.7998 11.6243 36.9684 12.0313 37.2684 12.3313C37.5685 12.6314 37.9755 12.8 38.3998 12.8Z" fill="#CC0001"/>
</svg>
