<svg width="43" height="48" viewBox="0 0 43 48" fill="none" xmlns="http://www.w3.org/2000/svg">
<path d="M30.1673 37.1999C30.1673 34.866 29.2542 32.6277 27.6289 30.9774C26.0036 29.327 23.7992 28.3999 21.5007 28.3999C19.2021 28.3999 16.9977 29.327 15.3724 30.9774C13.7471 32.6277 12.834 34.866 12.834 37.1999" stroke="#CC0001" stroke-width="4" stroke-linecap="round" stroke-linejoin="round"/>
<path d="M21.5 28.4C25.0899 28.4 28 25.445 28 21.8C28 18.1549 25.0899 15.2 21.5 15.2C17.9101 15.2 15 18.1549 15 21.8C15 25.445 17.9101 28.4 21.5 28.4Z" stroke="#CC0001" stroke-width="4" stroke-linecap="round" stroke-linejoin="round"/>
<path d="M36.6667 6.3999H6.33333C3.9401 6.3999 2 8.36985 2 10.7999V41.5999C2 44.03 3.9401 45.9999 6.33333 45.9999H36.6667C39.0599 45.9999 41 44.03 41 41.5999V10.7999C41 8.36985 39.0599 6.3999 36.6667 6.3999Z" stroke="#CC0001" stroke-width="4" stroke-linecap="round" stroke-linejoin="round"/>
<path d="M12.834 2V6.4M30.1673 2V6.4" stroke="#CC0001" stroke-width="4" stroke-linecap="round" stroke-linejoin="round"/>
</svg>
