<svg width="35" height="25" viewBox="0 0 35 25" fill="none" xmlns="http://www.w3.org/2000/svg">
<path d="M32.5 0H2.5C1.83696 0 1.20107 0.263392 0.732233 0.732233C0.263392 1.20107 0 1.83696 0 2.5V22.5C0 23.163 0.263392 23.7989 0.732233 24.2678C1.20107 24.7366 1.83696 25 2.5 25H32.5C33.163 25 33.7989 24.7366 34.2678 24.2678C34.7366 23.7989 35 23.163 35 22.5V2.5C35 1.83696 34.7366 1.20107 34.2678 0.732233C33.7989 0.263392 33.163 0 32.5 0ZM32.5 2.5V6.25H2.5V2.5H32.5ZM32.5 22.5H2.5V8.75H32.5V22.5ZM30 18.75C30 19.0815 29.8683 19.3995 29.6339 19.6339C29.3995 19.8683 29.0815 20 28.75 20H23.75C23.4185 20 23.1005 19.8683 22.8661 19.6339C22.6317 19.3995 22.5 19.0815 22.5 18.75C22.5 18.4185 22.6317 18.1005 22.8661 17.8661C23.1005 17.6317 23.4185 17.5 23.75 17.5H28.75C29.0815 17.5 29.3995 17.6317 29.6339 17.8661C29.8683 18.1005 30 18.4185 30 18.75ZM20 18.75C20 19.0815 19.8683 19.3995 19.6339 19.6339C19.3995 19.8683 19.0815 20 18.75 20H16.25C15.9185 20 15.6005 19.8683 15.3661 19.6339C15.1317 19.3995 15 19.0815 15 18.75C15 18.4185 15.1317 18.1005 15.3661 17.8661C15.6005 17.6317 15.9185 17.5 16.25 17.5H18.75C19.0815 17.5 19.3995 17.6317 19.6339 17.8661C19.8683 18.1005 20 18.4185 20 18.75Z" fill="#CC0001"/>
</svg>
