<svg width="22" height="22" viewBox="0 0 22 22" fill="none" xmlns="http://www.w3.org/2000/svg">
<path d="M10.95 21.9C10.6667 21.9 10.429 21.8043 10.237 21.613C10.045 21.4217 9.94933 21.184 9.95 20.9V19.9C7.86667 19.6667 6.079 18.8043 4.587 17.313C3.095 15.8217 2.23267 14.034 2 11.95H1C0.716667 11.95 0.479333 11.854 0.288 11.662C0.0966668 11.47 0.000666667 11.2327 0 10.95C0 10.6667 0.0960001 10.429 0.288 10.237C0.48 10.045 0.717333 9.94933 1 9.95H2C2.23333 7.86667 3.096 6.079 4.588 4.587C6.08 3.095 7.86733 2.23267 9.95 2V1C9.95 0.716667 10.046 0.479333 10.238 0.288C10.43 0.0966668 10.6673 0.000666667 10.95 0C11.2333 0 11.471 0.0960001 11.663 0.288C11.855 0.48 11.9507 0.717333 11.95 1V2C14.0333 2.23333 15.821 3.096 17.313 4.588C18.805 6.08 19.6673 7.86733 19.9 9.95H20.9C21.1833 9.95 21.421 10.046 21.613 10.238C21.805 10.43 21.9007 10.6673 21.9 10.95C21.9 11.2333 21.8043 11.471 21.613 11.663C21.4217 11.855 21.184 11.9507 20.9 11.95H19.9C19.6667 14.0333 18.8043 15.821 17.313 17.313C15.8217 18.805 14.034 19.6673 11.95 19.9V20.9C11.95 21.1833 11.854 21.421 11.662 21.613C11.47 21.805 11.2327 21.9007 10.95 21.9ZM10.95 17.95C12.8833 17.95 14.5333 17.2667 15.9 15.9C17.2667 14.5333 17.95 12.8833 17.95 10.95C17.95 9.01667 17.2667 7.36667 15.9 6C14.5333 4.63333 12.8833 3.95 10.95 3.95C9.01667 3.95 7.36667 4.63333 6 6C4.63333 7.36667 3.95 9.01667 3.95 10.95C3.95 12.8833 4.63333 14.5333 6 15.9C7.36667 17.2667 9.01667 17.95 10.95 17.95ZM10.95 14.95C9.85 14.95 8.90833 14.5583 8.125 13.775C7.34167 12.9917 6.95 12.05 6.95 10.95C6.95 9.85 7.34167 8.90833 8.125 8.125C8.90833 7.34167 9.85 6.95 10.95 6.95C12.05 6.95 12.9917 7.34167 13.775 8.125C14.5583 8.90833 14.95 9.85 14.95 10.95C14.95 12.05 14.5583 12.9917 13.775 13.775C12.9917 14.5583 12.05 14.95 10.95 14.95ZM10.95 12.95C11.5 12.95 11.971 12.7543 12.363 12.363C12.755 11.9717 12.9507 11.5007 12.95 10.95C12.95 10.4 12.754 9.929 12.362 9.537C11.97 9.145 11.4993 8.94933 10.95 8.95C10.4 8.95 9.929 9.146 9.537 9.538C9.145 9.93 8.94933 10.4007 8.95 10.95C8.95 11.5 9.146 11.971 9.538 12.363C9.93 12.755 10.4007 12.9507 10.95 12.95Z" fill="#CC0001"/>
</svg>
