<svg width="23" height="23" viewBox="0 0 23 23" fill="none" xmlns="http://www.w3.org/2000/svg">
<path d="M6.07227 2.3C6.07227 1.69 6.30405 1.10499 6.71663 0.673654C7.12921 0.242321 7.68879 0 8.27227 0H14.8723C15.4557 0 16.0153 0.242321 16.4279 0.673654C16.8405 1.10499 17.0723 1.69 17.0723 2.3V4.6H21.4723C21.764 4.6 22.0438 4.72116 22.2501 4.93683C22.4564 5.15249 22.5723 5.445 22.5723 5.75C22.5723 6.055 22.4564 6.34751 22.2501 6.56317C22.0438 6.77884 21.764 6.9 21.4723 6.9H20.2964L19.3427 20.8633C19.3032 21.4436 19.0548 21.9866 18.6476 22.3831C18.2404 22.7796 17.7046 23 17.1482 23H5.99527C5.43882 23 4.90304 22.7796 4.49584 22.3831C4.08864 21.9866 3.84027 21.4436 3.80077 20.8633L2.84927 6.9H1.67227C1.38053 6.9 1.10074 6.77884 0.894448 6.56317C0.688158 6.34751 0.572266 6.055 0.572266 5.75C0.572266 5.445 0.688158 5.15249 0.894448 4.93683C1.10074 4.72116 1.38053 4.6 1.67227 4.6H6.07227V2.3ZM8.27227 4.6H14.8723V2.3H8.27227V4.6ZM5.05367 6.9L5.99637 20.7H17.1493L18.092 6.9H5.05367ZM9.37227 9.2C9.664 9.2 9.94379 9.32116 10.1501 9.53683C10.3564 9.75249 10.4723 10.045 10.4723 10.35V17.25C10.4723 17.555 10.3564 17.8475 10.1501 18.0632C9.94379 18.2788 9.664 18.4 9.37227 18.4C9.08053 18.4 8.80074 18.2788 8.59445 18.0632C8.38816 17.8475 8.27227 17.555 8.27227 17.25V10.35C8.27227 10.045 8.38816 9.75249 8.59445 9.53683C8.80074 9.32116 9.08053 9.2 9.37227 9.2ZM13.7723 9.2C14.064 9.2 14.3438 9.32116 14.5501 9.53683C14.7564 9.75249 14.8723 10.045 14.8723 10.35V17.25C14.8723 17.555 14.7564 17.8475 14.5501 18.0632C14.3438 18.2788 14.064 18.4 13.7723 18.4C13.4805 18.4 13.2007 18.2788 12.9944 18.0632C12.7882 17.8475 12.6723 17.555 12.6723 17.25V10.35C12.6723 10.045 12.7882 9.75249 12.9944 9.53683C13.2007 9.32116 13.4805 9.2 13.7723 9.2Z" fill="#CC0001"/>
</svg>
