<svg width="22" height="27" viewBox="0 0 22 27" fill="none" xmlns="http://www.w3.org/2000/svg">
<path d="M15.4228 8.69336H17.8265C18.4641 8.69336 19.0755 8.94662 19.5263 9.39741C19.9771 9.84821 20.2303 10.4596 20.2303 11.0972V23.5969C20.2303 24.2344 19.9771 24.8458 19.5263 25.2966C19.0755 25.7474 18.4641 26.0007 17.8265 26.0007H3.40379C2.76627 26.0007 2.15485 25.7474 1.70405 25.2966C1.25326 24.8458 1 24.2344 1 23.5969V11.0972C1 10.4596 1.25326 9.84821 1.70405 9.39741C2.15485 8.94662 2.76627 8.69336 3.40379 8.69336H5.80758" stroke="#CC0001" stroke-width="2" stroke-linecap="round" stroke-linejoin="round"/>
<path d="M5.80762 14.4612L10.6152 19.2688L15.4228 14.4612M10.6152 1V18.3073" stroke="#CC0001" stroke-width="2" stroke-linecap="round" stroke-linejoin="round"/>
</svg>
