<svg width="5" height="23" viewBox="0 0 5 23" fill="none" xmlns="http://www.w3.org/2000/svg">
<path d="M2.42734 5.57342C2.90896 5.57342 3.37977 5.4306 3.78023 5.16302C4.18069 4.89545 4.49281 4.51513 4.67712 4.07016C4.86143 3.6252 4.90965 3.13557 4.81569 2.6632C4.72173 2.19083 4.4898 1.75693 4.14924 1.41636C3.80868 1.0758 3.37478 0.843877 2.90241 0.749917C2.43004 0.655956 1.94041 0.70418 1.49545 0.888491C1.05048 1.0728 0.670162 1.38492 0.402585 1.78538C0.135008 2.18584 -0.00781119 2.65665 -0.00781119 3.13827C-0.00781119 3.78411 0.248749 4.4035 0.705427 4.86018C1.16211 5.31686 1.78149 5.57342 2.42734 5.57342ZM2.42734 17.7492C1.94571 17.7492 1.4749 17.892 1.07444 18.1596C0.673983 18.4271 0.361864 18.8074 0.177553 19.2524C-0.0067574 19.6974 -0.0549814 20.187 0.0389792 20.6594C0.13294 21.1318 0.364866 21.5657 0.705427 21.9062C1.04599 22.2468 1.47989 22.4787 1.95226 22.5727C2.42463 22.6666 2.91426 22.6184 3.35923 22.4341C3.80419 22.2498 4.18451 21.9377 4.45209 21.5372C4.71966 21.1367 4.86248 20.6659 4.86248 20.1843C4.86248 19.5385 4.60592 18.9191 4.14924 18.4624C3.69256 18.0057 3.07318 17.7492 2.42734 17.7492ZM2.42734 9.22614C1.94571 9.22614 1.4749 9.36896 1.07444 9.63654C0.673983 9.90412 0.361864 10.2844 0.177553 10.7294C-0.0067574 11.1744 -0.0549814 11.664 0.0389792 12.1364C0.13294 12.6087 0.364866 13.0426 0.705427 13.3832C1.04599 13.7238 1.47989 13.9557 1.95226 14.0496C2.42463 14.1436 2.91426 14.0954 3.35923 13.9111C3.80419 13.7268 4.18451 13.4146 4.45209 13.0142C4.71966 12.6137 4.86248 12.1429 4.86248 11.6613C4.86248 11.0154 4.60592 10.3961 4.14924 9.93938C3.69256 9.4827 3.07318 9.22614 2.42734 9.22614Z" fill="#061735" fill-opacity="0.7"/>
</svg>
