<svg width="45" height="45" viewBox="0 0 45 45" fill="none" xmlns="http://www.w3.org/2000/svg">
<path d="M32.5716 12.433C31.8102 11.6714 31.3645 10.6504 31.3234 9.57433C31.2823 8.49823 31.649 7.44629 32.3501 6.62888C32.4081 6.5609 32.4383 6.47351 32.4345 6.38424C32.4308 6.29496 32.3934 6.2104 32.33 6.14749L28.2913 2.10421C28.2245 2.03748 28.134 2 28.0396 2C27.9452 2 27.8547 2.03748 27.7879 2.10421L21.3505 8.54162C21.113 8.77907 20.9341 9.0686 20.828 9.38725C20.7222 9.70663 20.5435 9.99697 20.306 10.2353C20.0685 10.4735 19.7788 10.6532 19.4598 10.76C19.1409 10.8663 18.8511 11.0452 18.6132 11.2826L2.10421 27.7879C2.03748 27.8547 2 27.9452 2 28.0396C2 28.134 2.03748 28.2245 2.10421 28.2913L6.14292 32.33C6.20582 32.3934 6.29039 32.4308 6.37966 32.4345C6.46894 32.4383 6.55632 32.4081 6.62431 32.3501C7.44154 31.6483 8.49371 31.281 9.57019 31.3218C10.6467 31.3626 11.668 31.8085 12.4297 32.5703C13.1915 33.332 13.6374 34.3533 13.6782 35.4298C13.719 36.5063 13.3517 37.5585 12.6499 38.3757C12.5919 38.4437 12.5617 38.5311 12.5655 38.6203C12.5692 38.7096 12.6065 38.7942 12.67 38.8571L16.7087 42.8958C16.7755 42.9625 16.866 43 16.9604 43C17.0548 43 17.1453 42.9625 17.2121 42.8958L33.722 26.3868C33.9594 26.1489 34.1383 25.8591 34.2446 25.5402C34.3503 25.2209 34.529 24.9305 34.7665 24.6922C35.004 24.4539 35.2937 24.2743 35.6128 24.1675C35.9314 24.0613 36.2209 23.8824 36.4584 23.6449L42.8958 17.2075C42.9625 17.1407 43 17.0502 43 16.9558C43 16.8614 42.9625 16.7709 42.8958 16.7041L38.8571 12.6654C38.7942 12.602 38.7096 12.5646 38.6203 12.5609C38.5311 12.5572 38.4437 12.5873 38.3757 12.6453C37.5594 13.3476 36.5081 13.7159 35.432 13.6765C34.356 13.6371 33.3344 13.193 32.5716 12.433Z" stroke="#003A6D" stroke-width="3" stroke-miterlimit="10"/>
<path d="M21.9968 11.9241L20.4858 10.4131M26.0254 15.9527L25.0178 14.946M30.0541 19.9822L29.0474 18.9746M34.587 24.5142L33.076 23.0033" stroke="#003A6D" stroke-width="3" stroke-miterlimit="10" stroke-linecap="round"/>
</svg>
