<svg width="25" height="45" viewBox="0 0 25 45" fill="none" xmlns="http://www.w3.org/2000/svg">
<rect width="25" height="45" fill="#F5F5F5"/>
<g id="ACCOUNT SETTINGS ( LINKED ACCOUNT )PAGE" clip-path="url(#clip0_0_1)">
<rect width="1920" height="1032" transform="translate(-140 -568)" fill="white"/>
<rect id="Rectangle 75" x="-140" y="-568" width="1920" height="751" fill="#DEF0FF"/>
<g id="Rectangle 1486" filter="url(#filter0_d_0_1)">
<rect x="-104" y="-410" width="1083" height="683" rx="20" fill="white"/>
</g>
<rect id="Rectangle 1522" x="-56" y="-19" width="987" height="83" rx="10" fill="#EFF8FF"/>
<path id="Vector" d="M5.76183 45H15.3809V26.0289H24.0477L25 16.6026H15.3809V11.8421C15.3809 11.214 15.6343 10.6115 16.0853 10.1674C16.5362 9.72321 17.1479 9.47368 17.7857 9.47368H25V0H17.7857C14.5968 0 11.5384 1.24765 9.28354 3.46847C7.02863 5.6893 5.76183 8.70138 5.76183 11.8421V16.6026H0.952289L0 26.0289H5.76183V45Z" fill="#3B5998"/>
</g>
<defs>
<filter id="filter0_d_0_1" x="-108" y="-410" width="1091" height="691" filterUnits="userSpaceOnUse" color-interpolation-filters="sRGB">
<feFlood flood-opacity="0" result="BackgroundImageFix"/>
<feColorMatrix in="SourceAlpha" type="matrix" values="0 0 0 0 0 0 0 0 0 0 0 0 0 0 0 0 0 0 127 0" result="hardAlpha"/>
<feOffset dy="4"/>
<feGaussianBlur stdDeviation="2"/>
<feComposite in2="hardAlpha" operator="out"/>
<feColorMatrix type="matrix" values="0 0 0 0 0 0 0 0 0 0 0 0 0 0 0 0 0 0 0.25 0"/>
<feBlend mode="normal" in2="BackgroundImageFix" result="effect1_dropShadow_0_1"/>
<feBlend mode="normal" in="SourceGraphic" in2="effect1_dropShadow_0_1" result="shape"/>
</filter>
<clipPath id="clip0_0_1">
<rect width="1920" height="1032" fill="white" transform="translate(-140 -568)"/>
</clipPath>
</defs>
</svg>
