<svg width="35" height="44" viewBox="0 0 35 44" fill="none" xmlns="http://www.w3.org/2000/svg">
<path d="M23.5156 39.6L27.8906 44H4.375C3.17188 44 2.14157 43.5688 1.28407 42.7064C0.426566 41.844 -0.00145462 40.8085 3.71392e-06 39.6V4.4C3.71392e-06 3.19 0.428753 2.1538 1.28625 1.2914C2.14375 0.429003 3.17334 -0.00146293 4.375 3.73515e-06H22.0391C22.6953 3.73515e-06 23.3151 0.13787 23.8984 0.413604C24.4818 0.689337 24.974 1.08314 25.375 1.595L33.9609 11.99C34.2891 12.3933 34.5443 12.8333 34.7266 13.31C34.9089 13.7867 35 14.2817 35 14.795V39.6C35 40.3333 34.8454 41.0029 34.5363 41.6086C34.2271 42.2143 33.7983 42.7181 33.25 43.12L21.875 31.79C21.2552 32.1933 20.5807 32.4962 19.8516 32.6986C19.1224 32.901 18.3385 33.0015 17.5 33C15.0938 33 13.0339 32.1383 11.3203 30.415C9.60677 28.6917 8.75 26.62 8.75 24.2C8.75 21.78 9.60677 19.7083 11.3203 17.985C13.0339 16.2617 15.0938 15.4 17.5 15.4C19.9063 15.4 21.9661 16.2617 23.6797 17.985C25.3932 19.7083 26.25 21.78 26.25 24.2C26.25 25.0433 26.1494 25.8317 25.9481 26.565C25.7469 27.2983 25.4465 27.9767 25.0469 28.6L30.625 34.32V14.74L21.9844 4.4H4.375V39.6H23.5156ZM17.5 28.6C18.7031 28.6 19.7334 28.1688 20.5909 27.3064C21.4484 26.444 21.8765 25.4085 21.875 24.2C21.875 22.99 21.4463 21.9538 20.5888 21.0914C19.7313 20.229 18.7017 19.7985 17.5 19.8C16.2969 19.8 15.2666 20.2312 14.4091 21.0936C13.5516 21.956 13.1235 22.9915 13.125 24.2C13.125 25.41 13.5538 26.4462 14.4113 27.3086C15.2688 28.171 16.2983 28.6015 17.5 28.6Z" fill="#CC0001"/>
</svg>
