<svg width="34" height="34" viewBox="0 0 34 34" fill="none" xmlns="http://www.w3.org/2000/svg">
<path d="M30.6385 13.3503H3.36155C2.06924 13.3503 1.51539 11.928 2.53078 11.2519L16.1692 2.22858C16.421 2.07892 16.7079 2 17 2C17.2921 2 17.579 2.07892 17.8308 2.22858L31.4692 11.2519C32.4846 11.928 31.9308 13.3503 30.6385 13.3503Z" stroke="#3B5998" stroke-width="3" stroke-linecap="round" stroke-linejoin="round"/>
<path d="M30.8462 26.1719H3.15385C2.51659 26.1719 2 26.6938 2 27.3377V30.8351C2 31.4789 2.51659 32.0009 3.15385 32.0009H30.8462C31.4834 32.0009 32 31.4789 32 30.8351V27.3377C32 26.6938 31.4834 26.1719 30.8462 26.1719Z" stroke="#3B5998" stroke-width="3" stroke-linecap="round" stroke-linejoin="round"/>
<path d="M5.46155 13.3496V26.1734M11.2308 13.3496V26.1734M17 13.3496V26.1734M22.7692 13.3496V26.1734M28.5385 13.3496V26.1734" stroke="#3B5998" stroke-width="3" stroke-linecap="round" stroke-linejoin="round"/>
</svg>
