<svg width="32" height="49" viewBox="0 0 32 49" fill="none" xmlns="http://www.w3.org/2000/svg">
<path d="M3.55556 1.75C3.55556 1.28587 3.36825 0.840752 3.03486 0.512563C2.70146 0.184374 2.24927 0 1.77778 0C1.30628 0 0.854098 0.184374 0.5207 0.512563C0.187302 0.840752 1.85295e-07 1.28587 1.85295e-07 1.75V12.25C-0.000418046 14.2671 0.70717 16.2225 2.00301 17.7851C3.29885 19.3477 5.10335 20.4216 7.11111 20.825V47.25C7.11111 47.7141 7.29841 48.1592 7.63181 48.4874C7.96521 48.8156 8.41739 49 8.88889 49C9.36038 49 9.81257 48.8156 10.146 48.4874C10.4794 48.1592 10.6667 47.7141 10.6667 47.25V20.825C12.6744 20.4216 14.4789 19.3477 15.7748 17.7851C17.0706 16.2225 17.7782 14.2671 17.7778 12.25V1.75C17.7778 1.28587 17.5905 0.840752 17.2571 0.512563C16.9237 0.184374 16.4715 0 16 0C15.5285 0 15.0763 0.184374 14.7429 0.512563C14.4095 0.840752 14.2222 1.28587 14.2222 1.75V12.25C14.2228 13.3361 13.8811 14.3957 13.2443 15.2827C12.6075 16.1697 11.7069 16.8405 10.6667 17.2025V1.75C10.6667 1.28587 10.4794 0.840752 10.146 0.512563C9.81257 0.184374 9.36038 0 8.88889 0C8.41739 0 7.96521 0.184374 7.63181 0.512563C7.29841 0.840752 7.11111 1.28587 7.11111 1.75V17.2025C6.07083 16.8405 5.17024 16.1697 4.53343 15.2827C3.89663 14.3957 3.55498 13.3361 3.55556 12.25V1.75ZM28.4444 47.25V24.5H23.1111C22.6396 24.5 22.1874 24.3156 21.854 23.9874C21.5206 23.6592 21.3333 23.2141 21.3333 22.75V8.75C21.3333 6.4295 22.4924 4.2595 24.0747 2.6985C25.6604 1.141 27.8649 0 30.2222 0C30.6937 0 31.1459 0.184374 31.4793 0.512563C31.8127 0.840752 32 1.28587 32 1.75V47.25C32 47.7141 31.8127 48.1592 31.4793 48.4874C31.1459 48.8156 30.6937 49 30.2222 49C29.7507 49 29.2985 48.8156 28.9651 48.4874C28.6317 48.1592 28.4444 47.7141 28.4444 47.25Z" fill="#CC0001"/>
</svg>
