<svg width="43" height="43" viewBox="0 0 43 43" fill="none" xmlns="http://www.w3.org/2000/svg">
<path d="M42.5818 17.2892H40.85V17.2H21.5V25.8H33.6507C31.878 30.8063 27.1147 34.4 21.5 34.4C14.376 34.4 8.6 28.624 8.6 21.5C8.6 14.376 14.376 8.6 21.5 8.6C24.7884 8.6 27.7801 9.84055 30.0581 11.8669L36.1393 5.78565C32.2994 2.20697 27.1631 0 21.5 0C9.62662 0 0 9.62662 0 21.5C0 33.3734 9.62662 43 21.5 43C33.3734 43 43 33.3734 43 21.5C43 20.0584 42.8516 18.6512 42.5818 17.2892Z" fill="#FFC107"/>
<path d="M2.48047 11.4928L9.54429 16.6732C11.4556 11.9411 16.0846 8.6 21.5015 8.6C24.7899 8.6 27.7817 9.84055 30.0596 11.8669L36.1409 5.78565C32.301 2.20697 27.1646 0 21.5015 0C13.2434 0 6.08172 4.66227 2.48047 11.4928Z" fill="#FF3D00"/>
<path d="M21.4997 42.9994C27.0532 42.9994 32.0992 40.8741 35.9144 37.418L29.2602 31.7871C27.029 33.4839 24.3028 34.4016 21.4997 34.3994C15.9076 34.3994 11.1593 30.8336 9.37052 25.8574L2.35938 31.2593C5.91762 38.2221 13.1438 42.9994 21.4997 42.9994Z" fill="#4CAF50"/>
<path d="M42.5818 17.2894H40.85V17.2002H21.5V25.8002H33.6507C32.8028 28.1828 31.2754 30.2649 29.2572 31.789L29.2604 31.7869L35.9147 37.4177C35.4438 37.8456 43 32.2502 43 21.5002C43 20.0586 42.8516 18.6514 42.5818 17.2894Z" fill="#1976D2"/>
</svg>
