<svg width="39" height="35" viewBox="0 0 39 35" fill="none" xmlns="http://www.w3.org/2000/svg">
<path d="M27.9052 0C24.528 0 21.5307 1.38772 19.5 3.77291C17.4693 1.38772 14.472 0 11.0948 0C8.15339 0.00370483 5.33344 1.22174 3.25353 3.38693C1.17362 5.55212 0.00355891 8.48768 0 11.5497C0 24.2089 17.787 34.3237 18.5435 34.7489C18.8375 34.9137 19.1661 35 19.5 35C19.8339 35 20.1625 34.9137 20.4565 34.7489C21.213 34.3237 39 24.2089 39 11.5497C38.9964 8.48768 37.8264 5.55212 35.7465 3.38693C33.6666 1.22174 30.8466 0.00370483 27.9052 0ZM26.9823 24.9124C24.6411 26.9806 22.1383 28.842 19.5 30.4773C16.8617 28.842 14.3589 26.9806 12.0177 24.9124C8.37491 21.6592 4.03448 16.6981 4.03448 11.5497C4.03448 9.60043 4.77834 7.73097 6.10241 6.35261C7.42648 4.97425 9.22231 4.1999 11.0948 4.1999C14.0871 4.1999 16.5918 5.84486 17.6324 8.4943C17.7838 8.88053 18.0423 9.21104 18.375 9.4437C18.7076 9.67636 19.0993 9.80061 19.5 9.80061C19.9007 9.80061 20.2924 9.67636 20.625 9.4437C20.9577 9.21104 21.2162 8.88053 21.3676 8.4943C22.4082 5.84486 24.9129 4.1999 27.9052 4.1999C29.7777 4.1999 31.5735 4.97425 32.8976 6.35261C34.2217 7.73097 34.9655 9.60043 34.9655 11.5497C34.9655 16.6981 30.6251 21.6592 26.9823 24.9124Z" fill="#003A6D"/>
</svg>
