<svg width="30" height="30" viewBox="0 0 30 30" fill="none" xmlns="http://www.w3.org/2000/svg">
<path d="M15 30C6.7155 30 0 23.2845 0 15C0 6.7155 6.7155 0 15 0C23.2845 0 30 6.7155 30 15C30 23.2845 23.2845 30 15 30ZM15 27C18.1826 27 21.2348 25.7357 23.4853 23.4853C25.7357 21.2348 27 18.1826 27 15C27 11.8174 25.7357 8.76515 23.4853 6.51472C21.2348 4.26428 18.1826 3 15 3C11.8174 3 8.76515 4.26428 6.51472 6.51472C4.26428 8.76515 3 11.8174 3 15C3 18.1826 4.26428 21.2348 6.51472 23.4853C8.76515 25.7357 11.8174 27 15 27ZM15 22.5C14.6022 22.5 14.2206 22.342 13.9393 22.0607C13.658 21.7794 13.5 21.3978 13.5 21C13.5 20.6022 13.658 20.2206 13.9393 19.9393C14.2206 19.658 14.6022 19.5 15 19.5C15.3978 19.5 15.7794 19.658 16.0607 19.9393C16.342 20.2206 16.5 20.6022 16.5 21C16.5 21.3978 16.342 21.7794 16.0607 22.0607C15.7794 22.342 15.3978 22.5 15 22.5ZM16.914 17.673C16.6005 17.9181 16.2025 18.0286 15.8076 17.9802C15.4126 17.9318 15.0531 17.7285 14.808 17.415C14.5629 17.1015 14.4524 16.7035 14.5008 16.3086C14.5492 15.9136 14.7525 15.5541 15.066 15.309L15.657 14.847C15.8909 14.6655 16.0867 14.4395 16.2331 14.1822C16.3795 13.9249 16.4737 13.6411 16.5103 13.3473C16.5469 13.0535 16.5251 12.7553 16.4462 12.47C16.3673 12.1846 16.2328 11.9176 16.0505 11.6842C15.8682 11.4509 15.6417 11.2559 15.3839 11.1103C15.126 10.9647 14.842 10.8714 14.5481 10.8358C14.2541 10.8002 13.956 10.823 13.6709 10.9028C13.3858 10.9826 13.1192 11.1179 12.8865 11.301L12.2955 11.763C12.141 11.8909 11.9623 11.9866 11.7702 12.0443C11.578 12.1019 11.3763 12.1205 11.1768 12.0988C10.9774 12.0771 10.7843 12.0157 10.609 11.9181C10.4338 11.8204 10.2799 11.6886 10.1564 11.5305C10.033 11.3723 9.94253 11.191 9.89041 10.9973C9.83829 10.8036 9.82557 10.6013 9.85299 10.4026C9.88041 10.2039 9.94742 10.0126 10.05 9.84025C10.1527 9.66787 10.2889 9.51782 10.4505 9.399L11.04 8.937C12.1372 8.07969 13.53 7.69335 14.9121 7.86298C16.2941 8.0326 17.5522 8.7443 18.4095 9.8415C19.2668 10.9387 19.6532 12.3315 19.4835 13.7136C19.3139 15.0956 18.6022 16.3537 17.505 17.211L16.914 17.673Z" fill="#3B5998"/>
</svg>
