<svg width="41" height="41" viewBox="0 0 41 41" fill="none" xmlns="http://www.w3.org/2000/svg">
<path d="M29.1485 7.2406L33.7583 11.8482M32.1128 3.18146L19.6481 15.6462C19.0041 16.2893 18.5648 17.1088 18.3857 18.0012L17.2344 23.7645L22.9977 22.611C23.8901 22.4325 24.7084 21.995 25.3527 21.3508L37.8174 8.88603C38.192 8.51146 38.4891 8.06678 38.6918 7.57739C38.8945 7.08799 38.9989 6.56346 38.9989 6.03374C38.9989 5.50402 38.8945 4.97949 38.6918 4.4901C38.4891 4.0007 38.192 3.55602 37.8174 3.18146C37.4428 2.80689 36.9982 2.50976 36.5088 2.30705C36.0194 2.10434 35.4948 2 34.9651 2C34.4354 2 33.9109 2.10434 33.4215 2.30705C32.9321 2.50976 32.4874 2.80689 32.1128 3.18146Z" stroke="#CC0001" stroke-width="4" stroke-linecap="round" stroke-linejoin="round"/>
<path d="M34.6473 28.1174V34.6469C34.6473 35.8013 34.1887 36.9085 33.3723 37.7249C32.556 38.5412 31.4488 38.9998 30.2943 38.9998H6.35297C5.19849 38.9998 4.0913 38.5412 3.27496 37.7249C2.45862 36.9085 2 35.8013 2 34.6469V10.7055C2 9.55103 2.45862 8.44384 3.27496 7.6275C4.0913 6.81115 5.19849 6.35254 6.35297 6.35254H12.8824" stroke="#CC0001" stroke-width="4" stroke-linecap="round" stroke-linejoin="round"/>
</svg>
