<svg width="30" height="30" viewBox="0 0 30 30" fill="none" xmlns="http://www.w3.org/2000/svg">
<path fill-rule="evenodd" clip-rule="evenodd" d="M25.9091 3H4.09091C3.72925 3 3.3824 3.15804 3.12667 3.43934C2.87094 3.72064 2.72727 4.10218 2.72727 4.5V25.5C2.72727 25.8978 2.87094 26.2794 3.12667 26.5607C3.3824 26.842 3.72925 27 4.09091 27H25.9091C26.2708 27 26.6176 26.842 26.8733 26.5607C27.1291 26.2794 27.2727 25.8978 27.2727 25.5V4.5C27.2727 4.10218 27.1291 3.72064 26.8733 3.43934C26.6176 3.15804 26.2708 3 25.9091 3ZM4.09091 0C3.00593 0 1.96539 0.474106 1.1982 1.31802C0.431005 2.16193 0 3.30653 0 4.5V25.5C0 26.6935 0.431005 27.8381 1.1982 28.682C1.96539 29.5259 3.00593 30 4.09091 30H25.9091C26.9941 30 28.0346 29.5259 28.8018 28.682C29.569 27.8381 30 26.6935 30 25.5V4.5C30 3.30653 29.569 2.16193 28.8018 1.31802C28.0346 0.474106 26.9941 0 25.9091 0H4.09091ZM6.81818 7.5H9.54545V10.5H6.81818V7.5ZM13.6364 7.5C13.2747 7.5 12.9279 7.65804 12.6721 7.93934C12.4164 8.22064 12.2727 8.60218 12.2727 9C12.2727 9.39782 12.4164 9.77936 12.6721 10.0607C12.9279 10.342 13.2747 10.5 13.6364 10.5H21.8182C22.1798 10.5 22.5267 10.342 22.7824 10.0607C23.0382 9.77936 23.1818 9.39782 23.1818 9C23.1818 8.60218 23.0382 8.22064 22.7824 7.93934C22.5267 7.65804 22.1798 7.5 21.8182 7.5H13.6364ZM9.54545 13.5H6.81818V16.5H9.54545V13.5ZM12.2727 15C12.2727 14.6022 12.4164 14.2206 12.6721 13.9393C12.9279 13.658 13.2747 13.5 13.6364 13.5H21.8182C22.1798 13.5 22.5267 13.658 22.7824 13.9393C23.0382 14.2206 23.1818 14.6022 23.1818 15C23.1818 15.3978 23.0382 15.7794 22.7824 16.0607C22.5267 16.342 22.1798 16.5 21.8182 16.5H13.6364C13.2747 16.5 12.9279 16.342 12.6721 16.0607C12.4164 15.7794 12.2727 15.3978 12.2727 15ZM9.54545 19.5H6.81818V22.5H9.54545V19.5ZM12.2727 21C12.2727 20.6022 12.4164 20.2206 12.6721 19.9393C12.9279 19.658 13.2747 19.5 13.6364 19.5H21.8182C22.1798 19.5 22.5267 19.658 22.7824 19.9393C23.0382 20.2206 23.1818 20.6022 23.1818 21C23.1818 21.3978 23.0382 21.7794 22.7824 22.0607C22.5267 22.342 22.1798 22.5 21.8182 22.5H13.6364C13.2747 22.5 12.9279 22.342 12.6721 22.0607C12.4164 21.7794 12.2727 21.3978 12.2727 21Z" fill="#3B5998"/>
</svg>
