<svg width="40" height="50" viewBox="0 0 40 50" fill="none" xmlns="http://www.w3.org/2000/svg">
<path d="M7.24033 36.214C7.85563 36.0345 8.51702 36.1068 9.079 36.415C9.64099 36.7232 10.0575 37.242 10.237 37.8573C10.4165 38.4726 10.3441 39.134 10.036 39.696C9.72777 40.258 9.20896 40.6745 8.59366 40.854C7.38533 41.2068 6.51533 41.579 5.95708 41.9173C6.53224 42.2629 7.44091 42.6496 8.70241 43.0096C11.4937 43.8071 15.4884 44.334 20.0003 44.334C24.5122 44.334 28.507 43.8071 31.2982 43.0096C32.5622 42.6496 33.4684 42.2629 34.0436 41.9173C33.4877 41.579 32.6177 41.2068 31.4094 40.854C30.8038 40.6666 30.296 40.2488 29.9956 39.6906C29.6952 39.1323 29.6261 38.4784 29.8034 37.8697C29.9806 37.2611 30.3898 36.7464 30.943 36.4367C31.4961 36.127 32.1488 36.047 32.7603 36.214C34.3747 36.6852 35.8537 37.2894 36.9895 38.0651C38.0407 38.7877 39.3337 40.0468 39.3337 41.9173C39.3337 43.8096 38.0093 45.0783 36.9412 45.8009C35.786 46.5791 34.2756 47.1856 32.625 47.6569C29.2948 48.6115 24.8337 49.1673 20.0003 49.1673C15.167 49.1673 10.7058 48.6115 7.37566 47.6569C5.72508 47.1856 4.21466 46.5791 3.05949 45.8009C1.99133 45.0759 0.666992 43.8096 0.666992 41.9173C0.666992 40.0468 1.95991 38.7877 3.01116 38.0651C4.14699 37.2894 5.62599 36.6852 7.24033 36.214ZM20.0003 0.833984C24.8074 0.833984 29.4175 2.74358 32.8166 6.14267C36.2157 9.54177 38.1253 14.1519 38.1253 18.959C38.1253 25.165 34.742 30.211 31.2378 33.7973C29.8449 35.2085 28.348 36.5131 26.7597 37.7002C25.3242 38.7781 22.0424 40.7984 22.0424 40.7984C21.42 41.1522 20.7163 41.3382 20.0003 41.3382C19.2844 41.3382 18.5807 41.1522 17.9582 40.7984C16.3288 39.8551 14.7539 38.8207 13.2409 37.7002C11.6521 36.5139 10.1551 35.2092 8.76283 33.7973C5.25866 30.211 1.87533 25.165 1.87533 18.959C1.87533 14.1519 3.78492 9.54177 7.18402 6.14267C10.5831 2.74358 15.1933 0.833984 20.0003 0.833984ZM20.0003 14.1257C18.7184 14.1257 17.4891 14.6349 16.5826 15.5413C15.6762 16.4477 15.167 17.6771 15.167 18.959C15.167 20.2409 15.6762 21.4702 16.5826 22.3767C17.4891 23.2831 18.7184 23.7923 20.0003 23.7923C21.2822 23.7923 22.5116 23.2831 23.418 22.3767C24.3244 21.4702 24.8337 20.2409 24.8337 18.959C24.8337 17.6771 24.3244 16.4477 23.418 15.5413C22.5116 14.6349 21.2822 14.1257 20.0003 14.1257Z" fill="#CC0001"/>
</svg>
