<svg width="17" height="21" viewBox="0 0 17 21" fill="none" xmlns="http://www.w3.org/2000/svg">
<path d="M8.5 4.50004C7.73584 4.50004 6.98885 4.71998 6.35348 5.13204C5.71811 5.5441 5.22289 6.12978 4.93046 6.81501C4.63804 7.50024 4.56152 8.25424 4.7106 8.98168C4.85968 9.70912 5.22766 10.3773 5.768 10.9018C6.30834 11.4262 6.99677 11.7834 7.74624 11.9281C8.49571 12.0728 9.27256 11.9985 9.97855 11.7147C10.6845 11.4308 11.288 10.9502 11.7125 10.3335C12.137 9.7168 12.3636 8.99177 12.3636 8.25008C12.3636 7.25551 11.9566 6.30167 11.232 5.59841C10.5074 4.89514 9.5247 4.50005 8.5 4.50004ZM8.5 10.5001C8.04151 10.5001 7.59331 10.3681 7.21209 10.1209C6.83086 9.87367 6.53374 9.52227 6.35828 9.11113C6.18282 8.69999 6.13691 8.24759 6.22636 7.81113C6.31581 7.37466 6.53659 6.97375 6.8608 6.65908C7.185 6.3444 7.59806 6.13011 8.04774 6.04329C8.49743 5.95648 8.96354 6.00103 9.38713 6.17133C9.81072 6.34163 10.1728 6.63002 10.4275 7.00004C10.6822 7.37005 10.8182 7.80507 10.8182 8.25008C10.8182 8.84683 10.5739 9.41913 10.1392 9.84109C9.70446 10.2631 9.11482 10.5001 8.5 10.5001ZM8.5 0C6.24644 0.00248134 4.08592 0.872481 2.49242 2.41913C0.89891 3.96579 0.0025565 6.06279 0 8.25008C0 11.1939 1.40153 14.3139 4.05682 17.2736C5.24993 18.611 6.59277 19.8153 8.06051 20.8643C8.19044 20.9526 8.34523 21 8.50386 21C8.6625 21 8.81729 20.9526 8.94722 20.8643C10.4123 19.8149 11.7525 18.6106 12.9432 17.2736C15.5946 14.3139 17 11.1939 17 8.25008C16.9974 6.06279 16.1011 3.96579 14.5076 2.41913C12.9141 0.872481 10.7536 0.00248134 8.5 0ZM8.5 19.3127C6.90335 18.0939 1.54545 13.6173 1.54545 8.25008C1.54545 6.45985 2.27816 4.74295 3.58239 3.47706C4.88662 2.21118 6.65554 1.50002 8.5 1.50002C10.3445 1.50002 12.1134 2.21118 13.4176 3.47706C14.7218 4.74295 15.4545 6.45985 15.4545 8.25008C15.4545 13.6154 10.0966 18.0939 8.5 19.3127Z" fill="#CC0001"/>
</svg>
