<svg width="36" height="40" viewBox="0 0 36 40" fill="none" xmlns="http://www.w3.org/2000/svg">
<path d="M31.3329 40.0001C30.7198 40.0019 30.1124 39.8821 29.546 39.6475C28.9795 39.4129 28.4652 39.0682 28.0329 38.6335L22.5289 33.1294C20.967 33.4743 19.3401 33.38 17.8286 32.8568C16.317 32.3337 14.9799 31.4022 13.9653 30.1656C12.9508 28.929 12.2984 27.4357 12.0807 25.8511C11.8629 24.2664 12.0882 22.6525 12.7315 21.1881L13.5155 19.4014L19.0569 24.9427C19.3106 25.1851 19.648 25.3203 19.9989 25.3203C20.3497 25.3203 20.6871 25.1851 20.9409 24.9427C21.0649 24.8191 21.1633 24.6722 21.2305 24.5105C21.2977 24.3488 21.3323 24.1755 21.3325 24.0003C21.3326 23.8252 21.2982 23.6518 21.2312 23.49C21.1643 23.3282 21.066 23.1812 20.9422 23.0574L15.4008 17.5147L17.1875 16.7307C18.6521 16.0878 20.266 15.8628 21.8506 16.0809C23.4351 16.2989 24.9284 16.9514 26.1648 17.966C27.4013 18.9806 28.3327 20.3177 28.8559 21.8292C29.3791 23.3407 29.4736 24.9675 29.1289 26.5294L34.6329 32.0334C35.2857 32.6861 35.7302 33.5176 35.9103 34.4229C36.0903 35.3282 35.9979 36.2666 35.6447 37.1194C35.2915 37.9721 34.6933 38.701 33.9258 39.2138C33.1583 39.7265 32.256 40.0002 31.3329 40.0001ZM23.2929 30.1214L29.9196 36.7481C30.3003 37.1116 30.8065 37.3145 31.3329 37.3145C31.8593 37.3145 32.3655 37.1116 32.7463 36.7481C32.9322 36.5626 33.0798 36.3422 33.1805 36.0996C33.2811 35.8569 33.3329 35.5968 33.3329 35.3341C33.3329 35.0714 33.2811 34.8113 33.1805 34.5687C33.0798 34.326 32.9322 34.1056 32.7463 33.9201L26.1209 27.2934L26.3716 26.5161C26.6644 25.6159 26.74 24.6592 26.592 23.7242C26.444 22.7892 26.0766 21.9025 25.5201 21.1368C24.9635 20.3711 24.2335 19.7481 23.3898 19.3187C22.5462 18.8894 21.6128 18.666 20.6662 18.6667C20.5542 18.6667 20.4431 18.6698 20.3329 18.676L22.8289 21.1721C23.5788 21.9222 24 22.9394 24 24.0001C24 25.0607 23.5788 26.078 22.8289 26.8281C22.0669 27.5557 21.0538 27.9617 20.0002 27.9617C18.9466 27.9617 17.9335 27.5557 17.1715 26.8281L14.6755 24.3321C14.6693 24.4432 14.6662 24.5547 14.6662 24.6667C14.6654 25.6135 14.8889 26.547 15.3183 27.3909C15.7477 28.2347 16.3708 28.9648 17.1367 29.5215C17.9025 30.0782 18.7893 30.4456 19.7245 30.5937C20.6596 30.7418 21.6165 30.6663 22.5169 30.3734L23.2929 30.1214Z" fill="#003A6D"/>
<path d="M26.6668 4.00002H22.6668V2.66668C22.6647 1.96008 22.383 1.28303 21.8834 0.783383C21.3837 0.283741 20.7067 0.00211031 20.0001 0H9.33338C8.62678 0.00211031 7.94972 0.283741 7.45008 0.783383C6.95044 1.28303 6.66881 1.96008 6.6667 2.66668V4.00002H2.66668C1.96008 4.00213 1.28303 4.28376 0.783383 4.7834C0.283741 5.28304 0.00211031 5.9601 0 6.6667V34.6668C0.00211031 35.3734 0.283741 36.0505 0.783383 36.5501C1.28303 37.0498 1.96008 37.3314 2.66668 37.3335H12.0001V34.6668H2.66668V6.6667H6.6667V10.6667H22.6668V6.6667H26.6668V13.3334H29.3335V6.6667C29.3314 5.9601 29.0497 5.28304 28.5501 4.7834C28.0504 4.28376 27.3734 4.00213 26.6668 4.00002ZM20.0001 8.00004H9.33338V2.66668H20.0001V8.00004Z" fill="#003A6D"/>
</svg>
