<svg width="32" height="35" viewBox="0 0 32 35" fill="none" xmlns="http://www.w3.org/2000/svg">
<path d="M16 24.875V27.4M16 12.35V14.7M16 33.55C24.75 33.55 31 30.45 31 23.55C31 16.05 27.25 11.05 19.75 7.3L22.7 3.5C22.8499 3.25068 22.9312 2.96616 22.9356 2.6753C22.9401 2.38443 22.8676 2.09756 22.7255 1.84374C22.5833 1.58993 22.3766 1.37821 22.1263 1.23003C21.8759 1.08186 21.5909 1.0025 21.3 1H10.7C10.4091 1.0025 10.1241 1.08186 9.87372 1.23003C9.62339 1.37821 9.41668 1.58993 9.27454 1.84374C9.13241 2.09756 9.0599 2.38443 9.06437 2.6753C9.06884 2.96616 9.15013 3.25068 9.3 3.5L12.25 7.325C4.75 11.1 1 16.1 1 23.6C1 30.45 7.25 33.55 16 33.55Z" stroke="#003A6D" stroke-width="2" stroke-linecap="round" stroke-linejoin="round"/>
<path d="M13.4989 23.7246C13.804 24.0867 14.1879 24.3741 14.6213 24.5648C15.0546 24.7554 15.5259 24.8443 15.9989 24.8246C16.7219 24.8739 17.4359 24.6409 17.9907 24.1747C18.5455 23.7085 18.898 23.0453 18.9739 22.3246C18.898 21.6039 18.5455 20.9407 17.9907 20.4745C17.4359 20.0083 16.7219 19.7753 15.9989 19.8246C15.2759 19.8739 14.5619 19.6409 14.0071 19.1747C13.4523 18.7085 13.0999 18.0453 13.0239 17.3246C13.0938 16.6014 13.4445 15.9344 14.0008 15.4669C14.5571 14.9995 15.2745 14.7689 15.9989 14.8246C16.4636 14.7962 16.9289 14.8711 17.3612 15.044C17.7934 15.2169 18.182 15.4835 18.4989 15.8246" stroke="#003A6D" stroke-width="2" stroke-linecap="round" stroke-linejoin="round"/>
</svg>
