<svg width="49" height="49" viewBox="0 0 49 49" fill="none" xmlns="http://www.w3.org/2000/svg">
<path d="M26.2093 25.6594L45.5814 17.9101V30.7945C44.1955 29.9088 42.5543 29.5097 40.9165 29.6599C39.2787 29.8101 37.7375 30.5012 36.5358 31.6242C35.3342 32.7472 34.5404 34.2382 34.2797 35.8622C34.019 37.4861 34.3062 39.1507 35.0959 40.5934C35.8857 42.0362 37.1331 43.175 38.6416 43.8304C40.15 44.4858 41.8337 44.6204 43.4272 44.2131C45.0206 43.8059 46.4332 42.8798 47.4422 41.5809C48.4512 40.2821 48.9993 38.6843 49 37.0395V15.2594C49 12.6542 49 10.4707 48.8177 8.7294C48.7922 8.48948 48.7618 8.25012 48.7265 8.01145C48.5487 6.82169 48.2388 5.714 47.6348 4.78635C47.2668 4.21624 46.7859 3.72757 46.2218 3.35045L46.2059 3.33905C44.5923 2.26782 42.7804 2.34303 40.9139 2.81939C39.1088 3.27979 36.8708 4.21655 34.1268 5.36528L29.3544 7.36187C28.0668 7.89976 26.9774 8.35789 26.1227 8.82969C25.2111 9.33111 24.4294 9.92371 23.8414 10.808C23.2534 11.6924 23.0072 12.6428 22.8955 13.6776C22.7907 14.6485 22.7907 15.8314 22.7907 17.2263V35.3506C21.4048 34.465 19.7636 34.0658 18.1258 34.216C16.488 34.3663 14.9468 35.0574 13.7451 36.1803C12.5435 37.3033 11.7497 38.7943 11.489 40.4183C11.2283 42.0423 11.5155 43.7068 12.3052 45.1496C13.095 46.5923 14.3424 47.7311 15.8509 48.3865C17.3594 49.0419 19.043 49.1766 20.6365 48.7693C22.2299 48.362 23.6425 47.4359 24.6515 46.1371C25.6605 44.8382 26.2086 43.2405 26.2093 41.5957V25.6571V25.6594ZM14.814 1.70941C14.814 1.25605 14.6339 0.821252 14.3133 0.500675C13.9928 0.180098 13.558 0 13.1047 0C12.6513 0 12.2166 0.180098 11.896 0.500675C11.5754 0.821252 11.3954 1.25605 11.3954 1.70941V14.8377C10.0095 13.9521 8.36827 13.5529 6.73048 13.7031C5.09269 13.8533 3.55147 14.5444 2.3498 15.6674C1.14814 16.7904 0.35438 18.2814 0.0936667 19.9054C-0.167047 21.5293 0.120115 23.1939 0.90988 24.6366C1.69964 26.0794 2.94709 27.2182 4.45555 27.8736C5.96401 28.529 7.64768 28.6636 9.24113 28.2563C10.8346 27.8491 12.2472 26.923 13.2562 25.6241C14.2652 24.3253 14.8133 22.7275 14.814 21.0828V8.55846C16.407 9.70718 18.3009 10.2565 19.9419 10.2565C20.3952 10.2565 20.83 10.0764 21.1505 9.7558C21.4711 9.43522 21.6512 9.00043 21.6512 8.54706C21.6512 8.0937 21.4711 7.6589 21.1505 7.33832C20.83 7.01775 20.3952 6.83765 19.9419 6.83765C18.7029 6.8074 17.5095 6.36465 16.5506 5.57952C15.5615 4.76584 14.814 3.52823 14.814 1.70941Z" fill="#CC0001"/>
</svg>
