<svg width="24" height="28" viewBox="0 0 24 28" fill="none" xmlns="http://www.w3.org/2000/svg">
<path d="M22.7219 7.9058C22.4396 7.59798 22.117 7.32956 21.7627 7.1078C21.9242 6.24813 21.8877 5.36312 21.6558 4.51959C21.424 3.67607 21.0029 2.8961 20.4243 2.2386C19.1071 0.7546 16.8067 0 13.5866 0H5.32335C4.39648 0.0028 3.61004 0.6734 3.46399 1.5848L0.0191131 23.4108C-0.0145409 23.6128 -0.00365626 23.8196 0.05101 24.017C0.105676 24.2144 0.202812 24.3975 0.335663 24.5537C0.468513 24.7098 0.63389 24.8353 0.820292 24.9212C1.00669 25.0072 1.20965 25.0517 1.41504 25.0516H5.6955L5.47081 26.4712C5.44104 26.6596 5.4525 26.8522 5.50438 27.0358C5.55627 27.2194 5.64735 27.3896 5.7714 27.5348C5.89545 27.68 6.04953 27.7968 6.22308 27.877C6.39662 27.9573 6.58553 27.9993 6.77685 28H11.0798C11.4909 28.0017 11.8892 27.8571 12.203 27.5923C12.5168 27.3274 12.7255 26.9597 12.7917 26.5552L13.6427 21.1974L13.7003 20.8936C13.7118 20.8149 13.7513 20.743 13.8117 20.6911C13.8721 20.6391 13.9492 20.6106 14.0289 20.6108H14.6721C19.7685 20.6108 22.8216 18.2028 23.747 13.454C24.0229 12.5137 24.074 11.5221 23.8962 10.5587C23.7184 9.5952 23.3167 8.68664 22.7233 7.9058H22.7219ZM6.20247 21.8218L5.91318 23.6502L1.40521 23.6362L4.85289 1.7962C4.87125 1.68518 4.9287 1.58432 5.01492 1.51171C5.10113 1.43911 5.21048 1.3995 5.32335 1.4H13.5866C16.3882 1.4 18.3333 1.9936 19.3683 3.164C20.3541 4.319 20.7094 5.8828 20.319 7.35H20.3218C20.2983 7.50257 20.272 7.65473 20.2432 7.8064L20.2418 7.8106C19.3289 12.4964 16.4205 14.7756 11.348 14.7756H8.9213C8.47179 14.7746 8.03689 14.9347 7.69585 15.2266C7.35482 15.5185 7.13034 15.9229 7.06334 16.366L6.20247 21.8204V21.8218ZM22.3666 13.1866C21.5759 17.241 19.0593 19.2108 14.6707 19.2108H14.0275C13.6162 19.2085 13.2177 19.3529 12.9038 19.6178C12.5898 19.8828 12.3813 20.2508 12.3156 20.6556L11.4519 26.0778L11.407 26.3172C11.3952 26.396 11.3554 26.4679 11.2948 26.5198C11.2342 26.5717 11.1569 26.6002 11.077 26.6L6.8569 26.691L7.70653 21.3024L8.45646 16.5844H8.45084V16.5816C8.46762 16.469 8.52431 16.3662 8.61062 16.2917C8.69693 16.2172 8.80714 16.176 8.9213 16.1756H11.348C16.9092 16.1756 20.3218 13.6458 21.4973 8.6506C21.5562 8.708 21.6124 8.76679 21.6658 8.82699C22.5786 10.0884 22.8384 11.7054 22.3666 13.1866Z" fill="#CC0001"/>
</svg>
