<svg width="35" height="35" viewBox="0 0 35 35" fill="none" xmlns="http://www.w3.org/2000/svg">
<path fill-rule="evenodd" clip-rule="evenodd" d="M15.7587 5.89832e-08C13.2412 0.000272642 10.7604 0.603598 8.52397 1.75947C6.28752 2.91534 4.36052 4.59012 2.90429 6.64362C1.44805 8.69711 0.504953 11.0696 0.153945 13.5624C-0.197064 16.0552 0.0542294 18.5958 0.886788 20.9715C1.71935 23.3473 3.10894 25.489 4.93925 27.2175C6.76956 28.9459 8.98732 30.2108 11.4069 30.9062C13.8264 31.6016 16.3774 31.7072 18.8462 31.2144C21.315 30.7215 23.6298 29.6444 25.5968 28.0732L32.0323 34.5084C32.3626 34.8274 32.8049 35.0039 33.2641 34.9999C33.7232 34.9959 34.1624 34.8118 34.4871 34.4871C34.8118 34.1625 34.9959 33.7233 34.9999 33.2641C35.0039 32.805 34.8274 32.3627 34.5084 32.0324L28.0729 25.5972C29.9256 23.2786 31.0859 20.4839 31.4203 17.5349C31.7546 14.5859 31.2493 11.6024 29.9627 8.92785C28.676 6.25332 26.6603 3.99644 24.1474 2.417C21.6346 0.837554 18.7268 -0.000256668 15.7587 5.89832e-08ZM5.25178 15.7597C5.25178 14.38 5.52355 13.0137 6.05157 11.739C6.5796 10.4643 7.35354 9.30611 8.3292 8.3305C9.30486 7.35488 10.4631 6.58098 11.7379 6.05298C13.0127 5.52498 14.379 5.25323 15.7587 5.25323C17.1385 5.25323 18.5048 5.52498 19.7796 6.05298C21.0544 6.58098 22.2126 7.35488 23.1883 8.3305C24.164 9.30611 24.9379 10.4643 25.4659 11.739C25.9939 13.0137 26.2657 14.38 26.2657 15.7597C26.2657 18.5462 25.1587 21.2185 23.1883 23.1889C21.2179 25.1592 18.5454 26.2661 15.7587 26.2661C12.9721 26.2661 10.2996 25.1592 8.3292 23.1889C6.35876 21.2185 5.25178 18.5462 5.25178 15.7597Z" fill="#CC0001"/>
</svg>
