<svg width="30" height="30" viewBox="0 0 30 30" fill="none" xmlns="http://www.w3.org/2000/svg">
<path d="M15.0168 0C16.1928 0.012308 17.3641 0.143081 18.5128 0.389242C18.7572 0.441627 18.9785 0.56602 19.1457 0.745037C19.3129 0.924054 19.4176 1.14875 19.4453 1.38773L19.7177 3.73703C19.7562 4.06824 19.8751 4.38617 20.0648 4.66522C20.2546 4.94427 20.5099 5.17665 20.8102 5.34367C21.1105 5.51069 21.4475 5.60769 21.794 5.62685C22.1405 5.64601 22.4868 5.5868 22.8052 5.454L25.0483 4.50782C25.2762 4.41143 25.5296 4.38542 25.7736 4.43337C26.0176 4.48133 26.24 4.60089 26.4101 4.77552C28.032 6.43866 29.2399 8.43336 29.943 10.6095C30.0165 10.8384 30.0141 11.0835 29.936 11.3109C29.8579 11.5383 29.708 11.7368 29.5072 11.8788L27.5189 13.2881C27.2387 13.4852 27.0109 13.743 26.8539 14.0405C26.6968 14.338 26.615 14.6669 26.615 15.0004C26.615 15.334 26.6968 15.6628 26.8539 15.9603C27.0109 16.2578 27.2387 16.5156 27.5189 16.7128L29.5104 18.1205C29.7116 18.2626 29.8616 18.4613 29.9397 18.6891C30.0178 18.9168 30.0201 19.1623 29.9462 19.3913C29.2434 21.5672 28.036 23.5619 26.4149 25.2253C26.2451 25.3999 26.0231 25.5195 25.7794 25.5678C25.5358 25.616 25.2825 25.5904 25.0547 25.4946L22.802 24.5453C22.4841 24.4115 22.1378 24.3514 21.7913 24.3699C21.4447 24.3884 21.1075 24.485 20.8071 24.6519C20.5066 24.8188 20.2513 25.0512 20.0617 25.3305C19.8722 25.6097 19.7538 25.9279 19.7161 26.2592L19.4437 28.6069C19.4165 28.8431 19.3141 29.0655 19.1503 29.2437C18.9866 29.4218 18.7695 29.5471 18.5289 29.6024C16.2081 30.1325 13.7903 30.1325 11.4695 29.6024C11.2286 29.5474 11.0112 29.4222 10.8471 29.244C10.6831 29.0658 10.5804 28.8433 10.5531 28.6069L10.2823 26.2623C10.243 25.932 10.1235 25.6151 9.93355 25.3372C9.74358 25.0592 9.48838 24.8279 9.18845 24.6619C8.88852 24.4958 8.55221 24.3996 8.20654 24.3809C7.86086 24.3623 7.51545 24.4217 7.19804 24.5545L4.94533 25.5022C4.71726 25.5984 4.4637 25.6242 4.21972 25.576C3.97574 25.5277 3.75339 25.4079 3.58345 25.233C1.96213 23.5676 0.755295 21.5708 0.0537816 19.3928C-0.0200862 19.1638 -0.017811 18.9183 0.0602909 18.6906C0.138393 18.4629 0.288441 18.2641 0.489583 18.122L2.48113 16.7128C2.76127 16.5156 2.98909 16.2578 3.14613 15.9603C3.30316 15.6628 3.385 15.334 3.385 15.0004C3.385 14.6669 3.30316 14.338 3.14613 14.0405C2.98909 13.743 2.76127 13.4852 2.48113 13.2881L0.489583 11.8819C0.288441 11.7398 0.138393 11.5411 0.0602909 11.3133C-0.017811 11.0856 -0.0200862 10.8401 0.0537816 10.6111C0.756859 8.4349 1.96478 6.4402 3.58665 4.77706C3.75679 4.60243 3.97922 4.48287 4.22319 4.43491C4.46716 4.38696 4.72063 4.41297 4.94853 4.50936L7.19163 5.45554C7.5105 5.58826 7.85734 5.64733 8.2043 5.62798C8.55126 5.60864 8.88865 5.51142 9.18938 5.34414C9.49011 5.17686 9.74579 4.94419 9.93587 4.66481C10.126 4.38543 10.2452 4.06713 10.2839 3.73549L10.5563 1.38773C10.5838 1.14827 10.6886 0.923077 10.8561 0.743735C11.0237 0.564392 11.2454 0.439895 11.4904 0.387703C12.6487 0.14187 13.8305 0.0119417 15.0168 0ZM15.0168 2.30776C14.29 2.31596 13.5649 2.37612 12.8474 2.48776L12.6712 3.99088C12.591 4.68214 12.3429 5.34564 11.9467 5.92793C11.5506 6.51021 11.0175 6.99499 10.3905 7.34319C9.76348 7.69139 9.06004 7.89328 8.33687 7.93258C7.6137 7.97188 6.89103 7.84749 6.2271 7.56944L4.78671 6.96327C3.87095 8.03082 3.14205 9.23425 2.62853 10.5264L3.9055 11.4295C4.48914 11.8412 4.96372 12.379 5.29087 12.9994C5.61802 13.6198 5.78857 14.3054 5.78872 15.0008C5.78888 15.6962 5.61864 16.3819 5.29177 17.0024C4.96489 17.6229 4.49055 18.1609 3.9071 18.5728L2.62693 19.4775C3.13964 20.7729 3.87025 21.9791 4.78671 23.0499L6.23671 22.4391C6.89921 22.1613 7.62037 22.0368 8.34213 22.0756C9.0639 22.1143 9.7661 22.3153 10.3922 22.6622C11.0184 23.0091 11.5509 23.4924 11.947 24.073C12.3431 24.6537 12.5917 25.3156 12.6728 26.0053L12.8474 27.5192C14.2734 27.75 15.7298 27.75 17.1542 27.5192L17.3304 26.0053C17.4102 25.3147 17.6579 24.6517 18.0537 24.0699C18.4494 23.4882 18.9821 23.0039 19.6086 22.6562C20.2352 22.3085 20.9381 22.1071 21.6606 22.0684C22.3832 22.0296 23.1051 22.1545 23.7681 22.4329L25.2165 23.0422C26.133 21.9737 26.8624 20.7692 27.3763 19.4759L26.0977 18.5713C25.5138 18.1598 25.0389 17.6221 24.7116 17.0017C24.3842 16.3812 24.2135 15.6955 24.2134 15C24.2132 14.3045 24.3836 13.6188 24.7107 12.9982C25.0377 12.3776 25.5124 11.8397 26.0961 11.428L27.3731 10.5249C26.8592 9.23207 26.1298 8.0281 25.2133 6.96019L23.7761 7.56483C23.1124 7.84383 22.3897 7.96906 21.6662 7.9304C20.9428 7.89173 20.239 7.69027 19.6117 7.34226C18.9843 6.99425 18.4509 6.50945 18.0547 5.92702C17.6584 5.34458 17.4103 4.68082 17.3304 3.98934L17.1558 2.48776C16.449 2.37682 15.7329 2.31665 15.0168 2.30776ZM14.9976 9.23103C16.5911 9.23103 18.1193 9.83887 19.2461 10.9208C20.3729 12.0028 21.0059 13.4703 21.0059 15.0004C21.0059 16.5306 20.3729 17.998 19.2461 19.08C18.1193 20.162 16.5911 20.7698 14.9976 20.7698C13.4041 20.7698 11.8759 20.162 10.7491 19.08C9.62232 17.998 8.98931 16.5306 8.98931 15.0004C8.98931 13.4703 9.62232 12.0028 10.7491 10.9208C11.8759 9.83887 13.4041 9.23103 14.9976 9.23103ZM14.9976 11.5388C14.0415 11.5388 13.1246 11.9035 12.4485 12.5527C11.7724 13.2019 11.3926 14.0823 11.3926 15.0004C11.3926 15.9185 11.7724 16.799 12.4485 17.4482C13.1246 18.0973 14.0415 18.4621 14.9976 18.4621C15.9537 18.4621 16.8706 18.0973 17.5467 17.4482C18.2228 16.799 18.6026 15.9185 18.6026 15.0004C18.6026 14.0823 18.2228 13.2019 17.5467 12.5527C16.8706 11.9035 15.9537 11.5388 14.9976 11.5388Z" fill="#3B5998"/>
</svg>
