<svg width="48" height="48" viewBox="0 0 48 48" fill="none" xmlns="http://www.w3.org/2000/svg">
<path d="M34.8085 13.1964C33.9915 12.379 33.5131 11.2834 33.469 10.1286C33.425 8.97371 33.8185 7.8448 34.5709 6.96758C34.6331 6.89462 34.6654 6.80084 34.6614 6.70504C34.6574 6.60923 34.6174 6.51848 34.5493 6.45097L30.215 2.11184C30.1434 2.04023 30.0462 2 29.9449 2C29.8436 2 29.7465 2.04023 29.6749 2.11184L22.7664 9.02027C22.5115 9.2751 22.3195 9.58582 22.2056 9.92778C22.0921 10.2705 21.9004 10.5821 21.6455 10.8378C21.3906 11.0936 21.0797 11.2864 20.7373 11.401C20.3951 11.515 20.0841 11.707 19.8288 11.9618L2.11184 29.6749C2.04023 29.7465 2 29.8436 2 29.9449C2 30.0462 2.04023 30.1434 2.11184 30.215L6.44606 34.5493C6.51356 34.6174 6.60432 34.6574 6.70012 34.6614C6.79593 34.6654 6.88971 34.6331 6.96267 34.5709C7.8397 33.8177 8.96886 33.4235 10.1241 33.4673C11.2793 33.5111 12.3754 33.9897 13.1929 34.8071C14.0103 35.6246 14.4889 36.7207 14.5327 37.8759C14.5765 39.0311 14.1823 40.1603 13.4291 41.0373C13.3669 41.1103 13.3346 41.2041 13.3386 41.2999C13.3426 41.3957 13.3826 41.4864 13.4507 41.5539L17.785 45.8882C17.8566 45.9598 17.9538 46 18.0551 46C18.1564 46 18.2535 45.9598 18.3251 45.8882L36.0431 28.1712C36.2979 27.9159 36.4899 27.6049 36.6039 27.2627C36.7174 26.9199 36.9092 26.6084 37.164 26.3526C37.4189 26.0969 37.7299 25.9041 38.0722 25.7895C38.4142 25.6756 38.7249 25.4836 38.9797 25.2287L45.8882 18.3202C45.9598 18.2486 46 18.1514 46 18.0501C46 17.9488 45.9598 17.8517 45.8882 17.7801L41.5539 13.4458C41.4864 13.3777 41.3957 13.3377 41.2999 13.3336C41.2041 13.3296 41.1103 13.362 41.0373 13.4242C40.1613 14.1779 39.0331 14.5731 37.8783 14.5309C36.7235 14.4886 35.6271 14.012 34.8085 13.1964Z" stroke="#003A6D" stroke-width="4" stroke-miterlimit="10"/>
<path d="M23.4594 12.6503L21.8379 11.0288M27.7828 16.9738L26.7015 15.8934M32.1063 21.2982L31.0259 20.2168M36.9708 26.1618L35.3493 24.5402" stroke="#003A6D" stroke-width="4" stroke-miterlimit="10" stroke-linecap="round"/>
</svg>
