<svg width="24" height="28" viewBox="0 0 24 28" fill="none" xmlns="http://www.w3.org/2000/svg">
<path d="M18.7656 12.25C19.2552 12.3958 19.7214 12.5938 20.1641 12.8438C20.6068 13.0938 21.0703 13.474 21.5547 13.9844C22.0391 14.4948 22.4531 15.0964 22.7969 15.7891C23.1406 16.4818 23.4271 17.3776 23.6562 18.4766C23.8854 19.5755 24 20.8073 24 22.1719C24 23.776 23.4792 25.1484 22.4375 26.2891C21.3958 27.4297 20.1406 28 18.6719 28H5.32812C3.85938 28 2.60417 27.4297 1.5625 26.2891C0.520833 25.1484 0 23.776 0 22.1719C0 20.8073 0.114583 19.5755 0.34375 18.4766C0.572917 17.3776 0.859375 16.4818 1.20312 15.7891C1.54688 15.0964 1.96094 14.4948 2.44531 13.9844C2.92969 13.474 3.39323 13.0938 3.83594 12.8438C4.27865 12.5938 4.74479 12.3958 5.23438 12.25C4.41146 10.9479 4 9.53125 4 8C4 6.91667 4.21094 5.88281 4.63281 4.89844C5.05469 3.91406 5.625 3.0625 6.34375 2.34375C7.0625 1.625 7.91406 1.05469 8.89844 0.632812C9.88281 0.210938 10.9167 0 12 0C13.0833 0 14.1172 0.210938 15.1016 0.632812C16.0859 1.05469 16.9375 1.625 17.6562 2.34375C18.375 3.0625 18.9453 3.91406 19.3672 4.89844C19.7891 5.88281 20 6.91667 20 8C20 9.53125 19.5885 10.9479 18.7656 12.25ZM12 2C10.3438 2 8.92969 2.58594 7.75781 3.75781C6.58594 4.92969 6 6.34375 6 8C6 9.65625 6.58594 11.0703 7.75781 12.2422C8.92969 13.4141 10.3438 14 12 14C13.6562 14 15.0703 13.4141 16.2422 12.2422C17.4141 11.0703 18 9.65625 18 8C18 6.34375 17.4141 4.92969 16.2422 3.75781C15.0703 2.58594 13.6562 2 12 2ZM18.6719 26C19.5885 26 20.3724 25.6276 21.0234 24.8828C21.6745 24.138 22 23.2344 22 22.1719C22 19.6823 21.5911 17.7188 20.7734 16.2812C19.9557 14.8438 18.7812 14.0885 17.25 14.0156C15.7396 15.3385 13.9896 16 12 16C10.0104 16 8.26042 15.3385 6.75 14.0156C5.21875 14.0885 4.04427 14.8438 3.22656 16.2812C2.40885 17.7188 2 19.6823 2 22.1719C2 23.2344 2.32552 24.138 2.97656 24.8828C3.6276 25.6276 4.41146 26 5.32812 26H18.6719Z" fill="#CC0001"/>
</svg>
