<svg width="36" height="38" viewBox="0 0 36 38" fill="none" xmlns="http://www.w3.org/2000/svg">
<path d="M22.0982 3.02997C22.1392 2.97955 22.1903 2.93781 22.2484 2.90728C22.3065 2.87675 22.3703 2.85807 22.436 2.85239C22.5018 2.8467 22.568 2.85412 22.6306 2.8742C22.6933 2.89427 22.7512 2.92659 22.8006 2.96917L24.5929 4.51199L18.9516 11.3996H22.6897L26.7879 6.39872L30.0026 9.16706C30.0977 9.24908 30.1561 9.36411 30.1656 9.48763C30.175 9.61114 30.1347 9.73338 30.0532 9.82827L28.7105 11.3996H32.4934C32.962 10.7298 33.1637 9.91585 33.0604 9.11098C32.9572 8.30611 32.5562 7.56584 31.933 7.02953L24.733 0.82974C24.3856 0.531061 23.9796 0.304651 23.5396 0.164336C23.0997 0.0240206 22.635 -0.0272535 22.1741 0.0136448C21.7132 0.0545432 21.2656 0.186756 20.8587 0.402207C20.4519 0.617659 20.0943 0.911827 19.8078 1.26675L11.629 11.3996H15.3457L22.0982 3.02997ZM25.7838 24.6998C25.3967 24.6998 25.0255 24.8499 24.7518 25.1172C24.4781 25.3844 24.3243 25.7469 24.3243 26.1248C24.3243 26.5028 24.4781 26.8652 24.7518 27.1325C25.0255 27.3997 25.3967 27.5498 25.7838 27.5498H29.6757C30.0627 27.5498 30.434 27.3997 30.7077 27.1325C30.9814 26.8652 31.1351 26.5028 31.1351 26.1248C31.1351 25.7469 30.9814 25.3844 30.7077 25.1172C30.434 24.8499 30.0627 24.6998 29.6757 24.6998H25.7838ZM2.91892 11.8746C2.91892 11.4967 3.07268 11.1342 3.34638 10.867C3.62009 10.5997 3.99131 10.4496 4.37838 10.4496H10.4653L12.7849 7.59954H4.37838C3.21716 7.59954 2.1035 8.04995 1.2824 8.85168C0.461292 9.65341 0 10.7408 0 11.8746V31.8249C0 33.4626 0.666311 35.0333 1.85235 36.1914C3.03839 37.3494 4.64701 38 6.32432 38H29.6757C31.353 38 32.9616 37.3494 34.1477 36.1914C35.3337 35.0333 36 33.4626 36 31.8249V19.4747C36 17.837 35.3337 16.2663 34.1477 15.1083C32.9616 13.9502 31.353 13.2996 29.6757 13.2996H4.37838C3.99131 13.2996 3.62009 13.1495 3.34638 12.8822C3.07268 12.615 2.91892 12.2525 2.91892 11.8746ZM2.91892 31.8249V15.9065C3.37622 16.0642 3.86659 16.1497 4.37838 16.1497H29.6757C31.5555 16.1497 33.0811 17.6393 33.0811 19.4747V31.8249C33.0811 32.7068 32.7223 33.5525 32.0837 34.1761C31.445 34.7996 30.5788 35.15 29.6757 35.15H6.32432C5.42115 35.15 4.55498 34.7996 3.91634 34.1761C3.2777 33.5525 2.91892 32.7068 2.91892 31.8249Z" fill="#003A6D"/>
</svg>
